<?xml version="1.0" encoding="utf-8"?>
<!-- Generator: Adobe Illustrator 23.0.4, SVG Export Plug-In . SVG Version: 6.00 Build 0)  -->
<svg version="1.1" xmlns="http://www.w3.org/2000/svg" xmlns:xlink="http://www.w3.org/1999/xlink" x="0px" y="0px"
	 viewBox="0 0 841.9 595.3" style="enable-background:new 0 0 841.9 595.3;" xml:space="preserve">
<style type="text/css">
	.st0{fill-rule:evenodd;clip-rule:evenodd;fill:#E56A70;}
	.st1{fill:#013233;}
	.st2{fill:#E54A52;stroke:#000000;stroke-width:5.6693;stroke-miterlimit:10;}
	.st3{fill:#ED1E27;stroke:#000000;stroke-width:5.6693;stroke-miterlimit:10;}
	.st4{fill:#F9B49F;stroke:#000000;stroke-width:5.6693;stroke-miterlimit:10;}
	.st5{fill-rule:evenodd;clip-rule:evenodd;fill:#FFD39A;stroke:#000000;stroke-width:5.6693;stroke-miterlimit:10;}
	.st6{fill-rule:evenodd;clip-rule:evenodd;fill:#E54A52;stroke:#000000;stroke-width:5.6693;stroke-miterlimit:10;}
	.st7{fill-rule:evenodd;clip-rule:evenodd;}
	.st8{fill-rule:evenodd;clip-rule:evenodd;fill:#FFD985;stroke:#000000;stroke-width:5.6693;stroke-miterlimit:10;}
</style>
<g id="Layer_1">
	<g>
		<path class="st0" d="M-212.8,132.7h74.9c2.5,0,4.4,2,4.4,4.4V168c0,2.4-1.9,4.4-4.4,4.4h-74.9c-2.4,0-4.2-2-4.2-4.4v-30.9
			C-217,134.7-215.1,132.7-212.8,132.7L-212.8,132.7z"/>
		<g>
			<path class="st1" d="M-212.8,134.8c14.3,0,28.6,0,42.9,0c8.7,0,17.4,0,26.1,0c1.6,0,4-0.5,5.6,0c3.3,0.9,2.5,4.3,2.5,6.9
				c0,4.7,0,9.5,0,14.2c0,3.4,0.8,7.9,0,11.2c-1.2,4.8-8.9,3.1-12.7,3.1c-18.6,0-37.2,0-55.7,0c-2.4,0-5.6,0.6-7.9,0
				c-3.5-0.9-2.9-4-2.9-6.9c0-5.4,0-10.8,0-16.1c0-2.8-1.7-11.7,2.7-12.5c2.7-0.5,1.6-4.6-1.1-4.1c-4.8,0.8-5.8,4.6-5.8,8.8
				c0,5.2,0,10.4,0,15.5c0,6.2-2.5,18.9,6.6,19.5c6.7,0.5,13.6,0,20.4,0c11.4,0,22.7,0,34.1,0c6.6,0,13.4,0.5,20,0
				c9.2-0.8,6.7-13.1,6.7-19.5c0-5.1,0-10.2,0-15.2c0-3.6-0.3-7.3-4.3-8.7c-1.8-0.7-4-0.5-5.9-0.5c-3.9,0-7.9,0-11.8,0
				c-19.8,0-39.6,0-59.4,0C-215.5,130.6-215.5,134.8-212.8,134.8z"/>
		</g>
	</g>
	<rect x="-202.5" y="147.6" style="fill-rule:evenodd;clip-rule:evenodd;fill:none;" width="61" height="15"/>
	<text transform="matrix(1 0 0 1 -202.4539 156.1565)" style="font-family:'MyriadPro-Regular'; font-size:12px;">moves</text>
</g>
<g id="img">
	<path class="st2" d="M412.2,76.6c0-9.3-7.6-16.9-16.9-16.9H115.2c-9.3,0-16.9,7.6-16.9,16.9v429.9c0,9.3,7.6,16.9,16.9,16.9h280.2
		c9.3,0,16.9-7.6,16.9-16.9V76.6z"/>
	<path class="st3" d="M426.2,75c0-10.2-8.2-18.4-18.4-18.4H102.7c-10.2,0-18.4,8.2-18.4,18.4v57.8h114.1l56.8-22.4h171V75z"/>
	<path class="st2" d="M261.4,131.5l-61.8,24H87.7v364.5c0,9.9,8.1,18,18,18h299.1c10,0,18-8.1,18-18V131.5H261.4z"/>
	<path class="st2" d="M584.6,131.5l61.8,24h111.9v364.5c0,9.9-8.1,18-18,18H441.2c-10,0-18-8.1-18-18V131.5H584.6z"/>
	<path class="st4" d="M180.5,94.6c0-14.1-11.4-25.5-25.5-25.5c-14.1,0-25.5,11.4-25.5,25.5s11.4,25.5,25.5,25.5
		C169.1,120.1,180.5,108.7,180.5,94.6z"/>
	<path class="st2" d="M224,80.2c0-6.1-4.9-11-11-11c-6.1,0-11,4.9-11,11c0,6.1,4.9,11,11,11C219,91.2,224,86.3,224,80.2z"/>
	<path class="st2" d="M260.5,80.2c0-6.1-4.9-11-11-11c-6.1,0-11,4.9-11,11c0,6.1,4.9,11,11,11C255.5,91.2,260.5,86.3,260.5,80.2z"/>
	<line class="st2" x1="390.5" y1="132.7" x2="390.5" y2="538.7"/>
	<line class="st2" x1="390.5" y1="177.7" x2="422.9" y2="177.7"/>
	<line class="st2" x1="390.5" y1="499.2" x2="422.9" y2="499.2"/>
	<path class="st5" d="M129.1,187.3h218.6c8.3,0,15.1,6.7,15.1,15.1v179.5c0,8.2-6.7,15.1-15.1,15.1H153.6
		c-5.7,0-17.4-13.2-21.5-17.1c-0.6-0.6-1.3-1.3-1.9-1.9c-3.4-3.5-7.1-6.9-10.4-10.5c-2.4-2.4-5.8-6.1-5.8-9.4V202.3
		C114,194,120.8,187.3,129.1,187.3L129.1,187.3z"/>
	<path class="st6" d="M170.4,356.8c7.8,0,14.1,6.4,14.1,14.3c0,7.8-6.3,14.3-14.1,14.3c-7.8,0-14.3-6.4-14.3-14.3
		C156.1,363.2,162.5,356.8,170.4,356.8L170.4,356.8z"/>
	<path class="st7" d="M274.1,359.8h54c0.9,0,1.9,0.8,1.9,1.9l0,0c0,1.1-0.9,2-1.9,2h-54c-1.1,0-1.9-0.9-1.9-2l0,0
		C272.2,360.6,273,359.8,274.1,359.8L274.1,359.8z"/>
	<path class="st7" d="M274.1,370h54c0.9,0,1.9,0.9,1.9,2l0,0c0,1.1-0.9,1.9-1.9,1.9h-54c-1.1,0-1.9-0.8-1.9-1.9l0,0
		C272.2,370.9,273,370,274.1,370L274.1,370z"/>
	<path class="st7" d="M274.1,380.4h54c0.9,0,1.9,0.8,1.9,1.9l0,0c0,1.1-0.9,2-1.9,2h-54c-1.1,0-1.9-0.9-1.9-2l0,0
		C272.2,381.1,273,380.4,274.1,380.4L274.1,380.4z"/>
	<path class="st8" d="M491.4,319.9h159.1c1.6,0,3,1.4,3,3v43.5c0,1.7-1.4,3.1-3,3.1H491.4c-1.6,0-3-1.4-3-3.1v-43.5
		C488.4,321.3,489.9,319.9,491.4,319.9L491.4,319.9z"/>
	<path class="st8" d="M495.7,384.8c3.9,0,7.1,3.1,7.1,7.2c0,3.9-3.1,7.2-7.1,7.2c-4.1,0-7.2-3.3-7.2-7.2
		C488.4,388,491.6,384.8,495.7,384.8L495.7,384.8z"/>
	<path class="st8" d="M495.5,384.8c4.1,0,7.2,3.1,7.2,7.2c0,3.9-3.1,7.2-7.2,7.2c-3.9,0-7.1-3.3-7.1-7.2
		C488.4,388,491.6,384.8,495.5,384.8L495.5,384.8z"/>
	<path class="st8" d="M676.8,409c9.1,0,16.3,7.4,16.3,16.3c0,9.1-7.2,16.3-16.3,16.3c-8.9,0-16.3-7.2-16.3-16.3
		C660.4,416.4,667.8,409,676.8,409L676.8,409z"/>
	<path class="st8" d="M490.6,412.8H542c1.3,0,2.2,1.1,2.2,2.4v20.4c0,1.3-0.9,2.4-2.2,2.4h-51.3c-1.3,0-2.2-1.1-2.2-2.4v-20.4
		C488.4,413.9,489.4,412.8,490.6,412.8L490.6,412.8z"/>
</g>
</svg>
