<?xml version="1.0" encoding="utf-8"?>
<!-- Generator: Adobe Illustrator 23.0.4, SVG Export Plug-In . SVG Version: 6.00 Build 0)  -->
<svg version="1.1" xmlns="http://www.w3.org/2000/svg" xmlns:xlink="http://www.w3.org/1999/xlink" x="0px" y="0px"
	 viewBox="0 0 841.9 595.3" style="enable-background:new 0 0 841.9 595.3;" xml:space="preserve">
<style type="text/css">
	.st0{fill-rule:evenodd;clip-rule:evenodd;fill:#E56A70;}
	.st1{fill:#013233;}
	.st2{fill:#FFD985;stroke:#000000;stroke-width:5.6693;stroke-miterlimit:10;}
	.st3{fill:#ED1E27;stroke:#000000;stroke-width:5.6693;stroke-miterlimit:10;}
	.st4{fill:#E54A52;stroke:#000000;stroke-width:5.6693;stroke-miterlimit:10;}
	.st5{fill:#5063AE;stroke:#000000;stroke-width:5.6693;stroke-miterlimit:10;}
	.st6{fill-rule:evenodd;clip-rule:evenodd;fill:#ED1E27;stroke:#000000;stroke-width:5.6693;stroke-miterlimit:10;}
	.st7{fill-rule:evenodd;clip-rule:evenodd;fill:#5063AE;stroke:#000000;stroke-width:5.6693;stroke-miterlimit:10;}
	.st8{fill-rule:evenodd;clip-rule:evenodd;stroke:#000000;stroke-miterlimit:10;}
	.st9{fill-rule:evenodd;clip-rule:evenodd;fill:#FFD985;stroke:#000000;stroke-width:5.6693;stroke-miterlimit:10;}
	.st10{fill-rule:evenodd;clip-rule:evenodd;fill:#FFD39A;stroke:#000000;stroke-width:5.6693;stroke-miterlimit:10;}
	.st11{fill-rule:evenodd;clip-rule:evenodd;fill:#FFD39A;stroke:#000000;stroke-width:4.7525;stroke-miterlimit:10;}
</style>
<g id="Layer_1">
	<g>
		<path class="st0" d="M-212.8,132.7h74.9c2.5,0,4.4,2,4.4,4.4V168c0,2.4-1.9,4.4-4.4,4.4h-74.9c-2.4,0-4.2-2-4.2-4.4v-30.9
			C-217,134.7-215.1,132.7-212.8,132.7L-212.8,132.7z"/>
		<g>
			<path class="st1" d="M-212.8,134.8c14.3,0,28.6,0,42.9,0c8.7,0,17.4,0,26.1,0c1.6,0,4-0.5,5.6,0c3.3,0.9,2.5,4.3,2.5,6.9
				c0,4.7,0,9.5,0,14.2c0,3.4,0.8,7.9,0,11.2c-1.2,4.8-8.9,3.1-12.7,3.1c-18.6,0-37.2,0-55.7,0c-2.4,0-5.6,0.6-7.9,0
				c-3.5-0.9-2.9-4-2.9-6.9c0-5.4,0-10.8,0-16.1c0-2.8-1.7-11.7,2.7-12.5c2.7-0.5,1.6-4.6-1.1-4.1c-4.8,0.8-5.8,4.6-5.8,8.8
				c0,5.2,0,10.4,0,15.5c0,6.2-2.5,18.9,6.6,19.5c6.7,0.5,13.6,0,20.4,0c11.4,0,22.7,0,34.1,0c6.6,0,13.4,0.5,20,0
				c9.2-0.8,6.7-13.1,6.7-19.5c0-5.1,0-10.2,0-15.2c0-3.6-0.3-7.3-4.3-8.7c-1.8-0.7-4-0.5-5.9-0.5c-3.9,0-7.9,0-11.8,0
				c-19.8,0-39.6,0-59.4,0C-215.5,130.6-215.5,134.8-212.8,134.8z"/>
		</g>
	</g>
	<rect x="-202.5" y="147.6" style="fill-rule:evenodd;clip-rule:evenodd;fill:none;" width="61" height="15"/>
	<text transform="matrix(1 0 0 1 -202.4539 156.1565)" style="font-family:'MyriadPro-Regular'; font-size:12px;">moves</text>
</g>
<g id="img">
	<path class="st2" d="M410,31.4c0-11.2-9.1-20.3-20.3-20.3H52.3c-11.2,0-20.3,9.1-20.3,20.3v517.8c0,11.2,9.1,20.3,20.3,20.3h337.4
		c11.2,0,20.3-9.1,20.3-20.3V31.4z"/>
	<path class="st3" d="M426.9,29.5c0-12.2-9.9-22.1-22.1-22.1H37.2c-12.2,0-22.1,9.9-22.1,22.1V99h137.5L221,72.1h205.9V29.5z"/>
	<path class="st4" d="M228.4,97.5l-74.5,29H19.2v439c0,12,9.7,21.7,21.7,21.7h360.2c12,0,21.7-9.7,21.7-21.7v-468H228.4z"/>
	<path class="st4" d="M617.6,97.5l74.5,29h134.7v439c0,12-9.7,21.7-21.7,21.7H444.9c-12,0-21.7-9.7-21.7-21.7v-468H617.6z"/>
	<path class="st5" d="M130.9,53.2c0-17-13.7-30.7-30.7-30.7c-17,0-30.7,13.7-30.7,30.7s13.7,30.7,30.7,30.7
		C117.2,83.9,130.9,70.1,130.9,53.2z"/>
	<path class="st4" d="M183.2,35.7c0-7.3-6-13.3-13.3-13.3c-7.3,0-13.3,6-13.3,13.3c0,7.3,6,13.3,13.3,13.3
		C177.3,49,183.2,43.1,183.2,35.7z"/>
	<path class="st4" d="M227.2,35.7c0-7.3-6-13.3-13.3-13.3c-7.3,0-13.3,6-13.3,13.3c0,7.3,6,13.3,13.3,13.3
		C221.3,49,227.2,43.1,227.2,35.7z"/>
	<line class="st4" x1="383.8" y1="99" x2="383.8" y2="588"/>
	<line class="st4" x1="383.8" y1="153.2" x2="422.8" y2="153.2"/>
	<line class="st4" x1="383.8" y1="540.4" x2="422.8" y2="540.4"/>
	<path class="st6" d="M69,164.7h263.3c10,0,18.1,8.1,18.1,18.1v216.2c0,9.8-8.1,18.1-18.1,18.1H98.5c-6.8,0-21-15.9-25.9-20.6
		c-0.8-0.8-1.5-1.5-2.3-2.3c-4.2-4.2-8.5-8.3-12.5-12.7c-2.8-2.8-7-7.4-7-11.3V182.9C50.9,172.8,59,164.7,69,164.7L69,164.7z"/>
	<path class="st7" d="M118.7,368.8c9.4,0,17,7.7,17,17.2c0,9.4-7.6,17.2-17,17.2c-9.4,0-17.2-7.7-17.2-17.2
		C101.5,376.6,109.3,368.8,118.7,368.8L118.7,368.8z"/>
	<path class="st8" d="M243.6,372.5h65c1.1,0,2.3,0.9,2.3,2.3l0,0c0,1.3-1.1,2.5-2.3,2.5h-65c-1.3,0-2.3-1.1-2.3-2.5l0,0
		C241.4,373.5,242.3,372.5,243.6,372.5L243.6,372.5z"/>
	<path class="st8" d="M243.6,384.8h65c1.1,0,2.3,1.1,2.3,2.5l0,0c0,1.3-1.1,2.3-2.3,2.3h-65c-1.3,0-2.3-0.9-2.3-2.3l0,0
		C241.4,385.9,242.3,384.8,243.6,384.8L243.6,384.8z"/>
	<path class="st8" d="M243.6,397.3h65c1.1,0,2.3,0.9,2.3,2.3l0,0c0,1.3-1.1,2.5-2.3,2.5h-65c-1.3,0-2.3-1.1-2.3-2.5l0,0
		C241.4,398.2,242.3,397.3,243.6,397.3L243.6,397.3z"/>
	<path class="st9" d="M473,360h191.6c1.9,0,3.6,1.7,3.6,3.6V416c0,2.1-1.7,3.8-3.6,3.8H473c-1.9,0-3.6-1.7-3.6-3.8v-52.4
		C469.5,361.7,471.2,360,473,360L473,360z"/>
	<path class="st10" d="M478.4,162.6h297.4c6.6,0,11.8,6.2,11.8,13.8v153.3c0,7.6-5.2,13.8-11.8,13.8H478.4
		c-6.7,0-11.8-6.2-11.8-13.8V176.4C466.5,168.8,471.7,162.6,478.4,162.6L478.4,162.6z"/>
	<path class="st11" d="M76.6,184.1H326c5.6,0,9.9,5.2,9.9,11.6v128.5c0,6.4-4.3,11.6-9.9,11.6H76.6c-5.6,0-9.9-5.2-9.9-11.6V195.7
		C66.7,189.3,71,184.1,76.6,184.1L76.6,184.1z"/>
	<path class="st9" d="M696.9,391.6h35c3.1,0,5.7,2.5,5.7,5.6l0,0c0,3.1-2.5,5.6-5.7,5.6h-35c-3.1,0-5.7-2.5-5.7-5.6l0,0
		C691.3,394.1,693.8,391.6,696.9,391.6L696.9,391.6z"/>
	<path class="st9" d="M759.4,391.6h35c3.1,0,5.6,2.5,5.6,5.6l0,0c0,3.1-2.5,5.6-5.6,5.6h-35c-3.1,0-5.7-2.5-5.7-5.6l0,0
		C753.7,394.1,756.2,391.6,759.4,391.6L759.4,391.6z"/>
</g>
</svg>
