<?xml version="1.0" encoding="utf-8"?>
<!-- Generator: Adobe Illustrator 23.0.4, SVG Export Plug-In . SVG Version: 6.00 Build 0)  -->
<svg version="1.1" xmlns="http://www.w3.org/2000/svg" xmlns:xlink="http://www.w3.org/1999/xlink" x="0px" y="0px"
	 viewBox="0 0 841.9 595.3" style="enable-background:new 0 0 841.9 595.3;" xml:space="preserve">
<style type="text/css">
	.st0{fill-rule:evenodd;clip-rule:evenodd;fill:#E56A70;}
	.st1{fill:#013233;}
	.st2{fill:#FFD985;stroke:#000000;stroke-width:5.6693;stroke-miterlimit:10;}
	.st3{fill:#ED1E27;stroke:#000000;stroke-width:5.6693;stroke-miterlimit:10;}
	.st4{fill:#E54A52;stroke:#000000;stroke-width:5.6693;stroke-miterlimit:10;}
	.st5{fill:#5063AE;stroke:#000000;stroke-width:5.6693;stroke-miterlimit:10;}
	.st6{fill-rule:evenodd;clip-rule:evenodd;fill:#ED1E27;stroke:#000000;stroke-width:5.6693;stroke-miterlimit:10;}
	.st7{fill-rule:evenodd;clip-rule:evenodd;fill:#5063AE;stroke:#000000;stroke-width:5.6693;stroke-miterlimit:10;}
	.st8{fill-rule:evenodd;clip-rule:evenodd;stroke:#000000;stroke-miterlimit:10;}
	.st9{fill-rule:evenodd;clip-rule:evenodd;fill:#FFE19E;stroke:#000000;stroke-width:5.6693;stroke-miterlimit:10;}
	.st10{fill-rule:evenodd;clip-rule:evenodd;fill:#FFE19E;stroke:#000000;stroke-width:4.7525;stroke-miterlimit:10;}
	.st11{fill-rule:evenodd;clip-rule:evenodd;fill:#FFDF98;}
	.st12{fill-rule:evenodd;clip-rule:evenodd;fill:#FFFFFF;}
	.st13{fill-rule:evenodd;clip-rule:evenodd;}
	.st14{fill-rule:evenodd;clip-rule:evenodd;fill:#E2CB98;}
</style>
<g id="Layer_1">
	<g>
		<path class="st0" d="M-212.8,132.7h74.9c2.5,0,4.4,2,4.4,4.4V168c0,2.4-1.9,4.4-4.4,4.4h-74.9c-2.4,0-4.2-2-4.2-4.4v-30.9
			C-217,134.7-215.1,132.7-212.8,132.7L-212.8,132.7z"/>
		<g>
			<path class="st1" d="M-212.8,134.8c14.3,0,28.6,0,42.9,0c8.7,0,17.4,0,26.1,0c1.6,0,4-0.5,5.6,0c3.3,0.9,2.5,4.3,2.5,6.9
				c0,4.7,0,9.5,0,14.2c0,3.4,0.8,7.9,0,11.2c-1.2,4.8-8.9,3.1-12.7,3.1c-18.6,0-37.2,0-55.7,0c-2.4,0-5.6,0.6-7.9,0
				c-3.5-0.9-2.9-4-2.9-6.9c0-5.4,0-10.8,0-16.1c0-2.8-1.7-11.7,2.7-12.5c2.7-0.5,1.6-4.6-1.1-4.1c-4.8,0.8-5.8,4.6-5.8,8.8
				c0,5.2,0,10.4,0,15.5c0,6.2-2.5,18.9,6.6,19.5c6.7,0.5,13.6,0,20.4,0c11.4,0,22.7,0,34.1,0c6.6,0,13.4,0.5,20,0
				c9.2-0.8,6.7-13.1,6.7-19.5c0-5.1,0-10.2,0-15.2c0-3.6-0.3-7.3-4.3-8.7c-1.8-0.7-4-0.5-5.9-0.5c-3.9,0-7.9,0-11.8,0
				c-19.8,0-39.6,0-59.4,0C-215.5,130.6-215.5,134.8-212.8,134.8z"/>
		</g>
	</g>
	<rect x="-202.5" y="147.6" style="fill-rule:evenodd;clip-rule:evenodd;fill:none;" width="61" height="15"/>
	<text transform="matrix(1 0 0 1 -202.4539 156.1565)" style="font-family:'MyriadPro-Regular'; font-size:12px;">moves</text>
</g>
<g id="img">
	<path class="st2" d="M410,31.4c0-11.2-9.1-20.3-20.3-20.3H52.3c-11.2,0-20.3,9.1-20.3,20.3v517.8c0,11.2,9.1,20.3,20.3,20.3h337.4
		c11.2,0,20.3-9.1,20.3-20.3V31.4z"/>
	<path class="st3" d="M426.9,29.5c0-12.2-9.9-22.1-22.1-22.1H37.2c-12.2,0-22.1,9.9-22.1,22.1V99h137.5L221,72.1h205.9V29.5z"/>
	<path class="st4" d="M228.4,97.5l-74.5,29H19.2v439c0,12,9.7,21.7,21.7,21.7h360.2c12,0,21.7-9.7,21.7-21.7v-468H228.4z"/>
	<path class="st4" d="M617.6,97.5l74.5,29h134.7v439c0,12-9.7,21.7-21.7,21.7H444.9c-12,0-21.7-9.7-21.7-21.7v-468H617.6z"/>
	<path class="st5" d="M130.9,53.2c0-17-13.7-30.7-30.7-30.7c-17,0-30.7,13.7-30.7,30.7s13.7,30.7,30.7,30.7
		C117.2,83.9,130.9,70.1,130.9,53.2z"/>
	<path class="st4" d="M183.2,35.7c0-7.3-6-13.3-13.3-13.3c-7.3,0-13.3,6-13.3,13.3c0,7.3,6,13.3,13.3,13.3
		C177.3,49,183.2,43.1,183.2,35.7z"/>
	<path class="st4" d="M227.2,35.7c0-7.3-6-13.3-13.3-13.3c-7.3,0-13.3,6-13.3,13.3c0,7.3,6,13.3,13.3,13.3
		C221.3,49,227.2,43.1,227.2,35.7z"/>
	<line class="st4" x1="383.8" y1="99" x2="383.8" y2="588"/>
	<line class="st4" x1="383.8" y1="153.2" x2="422.8" y2="153.2"/>
	<line class="st4" x1="383.8" y1="540.4" x2="422.8" y2="540.4"/>
	<path class="st6" d="M69,164.7h263.3c10,0,18.1,8.1,18.1,18.1v216.2c0,9.8-8.1,18.1-18.1,18.1H98.5c-6.8,0-21-15.9-25.9-20.6
		c-0.8-0.8-1.5-1.5-2.3-2.3c-4.2-4.2-8.5-8.3-12.5-12.7c-2.8-2.8-7-7.4-7-11.3V182.9C50.9,172.8,59,164.7,69,164.7L69,164.7z"/>
	<path class="st7" d="M118.7,368.8c9.4,0,17,7.7,17,17.2c0,9.4-7.6,17.2-17,17.2c-9.4,0-17.2-7.7-17.2-17.2
		C101.5,376.6,109.3,368.8,118.7,368.8L118.7,368.8z"/>
	<path class="st8" d="M243.6,372.5h65c1.1,0,2.3,0.9,2.3,2.3l0,0c0,1.3-1.1,2.5-2.3,2.5h-65c-1.3,0-2.3-1.1-2.3-2.5l0,0
		C241.4,373.5,242.3,372.5,243.6,372.5L243.6,372.5z"/>
	<path class="st8" d="M243.6,384.8h65c1.1,0,2.3,1.1,2.3,2.5l0,0c0,1.3-1.1,2.3-2.3,2.3h-65c-1.3,0-2.3-0.9-2.3-2.3l0,0
		C241.4,385.9,242.3,384.8,243.6,384.8L243.6,384.8z"/>
	<path class="st8" d="M243.6,397.3h65c1.1,0,2.3,0.9,2.3,2.3l0,0c0,1.3-1.1,2.5-2.3,2.5h-65c-1.3,0-2.3-1.1-2.3-2.5l0,0
		C241.4,398.2,242.3,397.3,243.6,397.3L243.6,397.3z"/>
	<path class="st9" d="M473,360h191.6c1.9,0,3.6,1.7,3.6,3.6V416c0,2.1-1.7,3.8-3.6,3.8H473c-1.9,0-3.6-1.7-3.6-3.8v-52.4
		C469.5,361.7,471.2,360,473,360L473,360z"/>
	<path class="st9" d="M478.4,162.6h297.4c6.6,0,11.8,6.2,11.8,13.8v153.3c0,7.6-5.2,13.8-11.8,13.8H478.4c-6.7,0-11.8-6.2-11.8-13.8
		V176.4C466.5,168.8,471.7,162.6,478.4,162.6L478.4,162.6z"/>
	<path class="st10" d="M76.6,184.1H326c5.6,0,9.9,5.2,9.9,11.6v128.5c0,6.4-4.3,11.6-9.9,11.6H76.6c-5.6,0-9.9-5.2-9.9-11.6V195.7
		C66.7,189.3,71,184.1,76.6,184.1L76.6,184.1z"/>
	<path class="st7" d="M696.9,391.6h35c3.1,0,5.7,2.5,5.7,5.6l0,0c0,3.1-2.5,5.6-5.7,5.6h-35c-3.1,0-5.7-2.5-5.7-5.6l0,0
		C691.3,394.1,693.8,391.6,696.9,391.6L696.9,391.6z"/>
	<path class="st7" d="M759.4,391.6h35c3.1,0,5.6,2.5,5.6,5.6l0,0c0,3.1-2.5,5.6-5.6,5.6h-35c-3.1,0-5.7-2.5-5.7-5.6l0,0
		C753.7,394.1,756.2,391.6,759.4,391.6L759.4,391.6z"/>
	<g>
		<g>
			<path class="st11" d="M646.8,31.9L646.8,31.9C646.8,31.9,646.8,31.9,646.8,31.9C646.8,31.9,646.8,31.9,646.8,31.9z"/>
			<path class="st11" d="M645.9,34.9c0.1,0,0.1,0,0.2,0c0.1-0.1,0.2,0,0.2-0.1l0,0c0.1-0.1,0.2,0,0.2-0.1l0,0c0.1-0.1,0.2,0,0.2-0.1
				l0,0c0.1-0.1,0.2,0,0.2-0.1l0,0c0.1-0.1,0.2,0,0.2-0.1l0,0c0.1-0.1,0.2,0,0.2-0.1l0,0c0.1-0.1,0.1,0,0.2-0.1l0,0
				c0.1-0.1,0.1,0,0.2-0.1l0,0c0.1-0.1,0.1,0,0.2-0.1l0,0c0.1-0.1,0.1,0,0.2-0.1l0,0c0.1-0.1,0.1,0,0.2-0.1l0,0
				c0.1-0.1,0.1,0,0.2-0.1l0,0l0,0c0.1,0,0.1,0,0.2,0l0,0l0,0c0.1,0,0.1,0,0.2,0l0,0l0,0c0.3,0,0.6,0,0.9-0.2c0,0,0,0,0,0l0,0
				c0,0,0,0,0,0c0.1,0,0.1,0,0.1,0l0,0l0,0c0.1,0,0.2,0,0.2-0.1c0,0,0,0,0,0l0,0c0,0,0,0,0,0c0.1,0,0.2,0,0.2-0.1c0,0,0,0,0,0l0,0
				c0,0,0,0,0,0c0.1,0,0.2,0,0.2-0.1c0,0,0,0,0,0l0,0c0,0,0,0,0,0c0.1,0,0.2,0,0.2-0.1c0,0,0,0,0,0l0,0c0,0,0,0,0,0
				c0.1,0,0.2,0,0.2-0.1c0,0,0,0,0,0l0,0c0,0,0,0,0,0c0.1,0,0.2,0,0.2-0.1c0,0,0,0,0,0l0,0c0,0,0,0,0,0c0.1,0,0.2,0,0.2-0.1l0,0
				c0.2-0.1,0.3-0.1,0.5-0.2c0.9-0.3,1.8-0.5,2.7-0.8c0.7-0.2,1.4-0.4,2-0.5c0.2,0,0.2-0.1,0.2-0.3c-0.1-0.1,0-0.2-0.1-0.2l0,0
				c0-0.1,0-0.1-0.1-0.1l0,0c-0.1-0.1-0.1-0.2-0.2-0.3l0,0c0-0.1,0-0.1-0.1-0.1l0,0c0,0,0-0.1-0.1-0.1c0,0,0,0,0-0.1
				c0-0.1,0-0.1-0.1-0.2l0,0c0,0,0-0.1-0.1-0.1l0,0c-0.1-0.2-0.2-0.3-0.3-0.5c-0.6-1.2-1.1-2.4-1.7-3.6c-0.1-0.2-0.2-0.3-0.3-0.5
				c-0.6,0.5-1.2,1-1.8,1.5c-0.2,0.1-0.3,0.3-0.5,0.4c-0.6,0.5-1.2,1-1.9,1.5l0,0c-0.1,0-0.1,0.1-0.2,0.1l0,0c0,0-0.1,0.1-0.1,0.1
				l0,0c0,0-0.1,0.1-0.1,0.1l0,0c0,0-0.1,0-0.1,0.1c0,0,0,0,0,0l0,0c0,0,0,0,0,0c-0.1,0-0.1,0-0.1,0.1c0,0,0,0,0,0l0,0c0,0,0,0,0,0
				c-0.1,0-0.1,0.1-0.2,0.1l0,0c0,0-0.1,0.1-0.1,0.1l0,0c0,0-0.1,0.1-0.1,0.1l0,0c-0.1,0-0.1,0-0.1,0.1l0,0c-0.1,0-0.2,0.2-0.3,0.2
				l0,0c0,0-0.1,0.1-0.1,0.1l0,0c0,0-0.1,0.1-0.1,0.1l0,0c-0.1,0-0.1,0-0.1,0.1l0,0c-0.1,0-0.2,0.2-0.3,0.2l0,0c0,0-0.1,0.1-0.1,0.1
				l0,0c0,0-0.1,0.1-0.1,0.1c0,0,0,0,0,0l0,0c0,0,0,0,0,0c-0.2,0-0.2,0.2-0.4,0.3l0,0c0,0-0.1,0.1-0.1,0.1l0,0c0,0-0.1,0.1-0.1,0.1
				l0,0c-0.1,0-0.1,0-0.1,0.1c0,0,0,0,0,0l0,0c0,0,0,0,0,0c-0.1,0-0.1,0.1-0.2,0.1l0,0c0,0-0.1,0.1-0.1,0.1l0,0c0,0-0.1,0.1-0.1,0.1
				l0,0c0,0-0.1,0-0.1,0.1l0,0l0,0c0,0-0.1,0-0.1,0.1c0,0,0,0,0,0l0,0c0,0,0,0,0,0c-0.1,0-0.1,0.1-0.2,0.1l0,0c0,0-0.1,0.1-0.1,0.1
				l0,0c0,0-0.1,0.1-0.1,0.1c-0.4,0.4-0.8,0.7-1.2,1c-0.5,0.4-0.5,0.4-0.3,1C645.2,35.1,645.2,35.1,645.9,34.9z"/>
			<path class="st11" d="M605.7,48.5c-0.1-0.2-0.2-0.4-0.4-0.5c-0.2-0.3-0.4-0.5-0.6-0.8c-2-2.4-4.6-3.5-7.6-3.7
				c-2.3-0.1-4.5,0.4-6.6,1.4c-0.2,0.1-0.4,0.2-0.6,0.3c-0.7,0.2-1.2,0.6-1.7,1c0,0-0.1,0.1-0.1,0.1c0,0,0,0,0,0
				c-0.6,0.3-1,0.7-1.5,1.2c-1.5,1.5-2.7,3.2-3.5,5.1c-0.8,2.3-1,4.7-0.2,7.1c0.1,0.3,0.2,0.7,0.5,0.9c0,0,0,0,0,0l0,0c0,0,0,0,0,0
				c0,0,0,0.1,0.1,0.1l0,0c0.1,0.1,0,0.2,0.1,0.2c0,0,0,0,0,0l0,0c0,0,0,0,0,0c0,0.1,0,0.1,0.1,0.1l0,0c0,0,0,0.1,0.1,0.1l0,0
				c0.1,0.1,0.1,0.2,0.2,0.3l0,0c0,0.1,0,0.1,0.1,0.1c0.1,0.1,0.1,0.2,0.2,0.3c1.5,2.2,3.5,3.5,6,4.1c2,0.5,3.9,0.4,5.9-0.1
				c1.5-0.4,3-1,4.3-1.9c0.2,0,0.4-0.3,0.6-0.4c0.3-0.2,0.7-0.3,0.9-0.6c2.2-1.8,3.7-4,4.6-6.7c0.1-0.3,0.1-0.6,0.2-0.9
				c0,0,0-0.1,0.1-0.1c0.4-2.4,0.2-4.7-0.9-6.8C605.7,48.6,605.7,48.6,605.7,48.5z"/>
			<path class="st11" d="M639.5,67.4c0.1-0.4,0.2-0.4-0.3-0.6c-2.2-0.7-4.2-1.8-6-3.3c-0.8-0.7-1.5-1.4-2.1-2.2c0-0.1,0-0.1-0.1-0.1
				l0,0c0-0.1,0-0.1-0.1-0.1c0,0,0,0,0,0l0,0c0,0,0,0,0,0c0-0.1,0-0.1-0.1-0.1c0,0,0,0,0,0l0,0c0,0,0,0,0,0
				c-0.1-0.2-0.2-0.5-0.3-0.7c-0.6-1-1.1-2-1.5-3.1c-0.1-0.3-0.3-0.5-0.6-0.6c-2-1.3-4.1-2.6-6.1-3.9c-0.1,0-0.1-0.1-0.2-0.1
				c0,0-0.1,0-0.1-0.1c0,0-0.1-0.1-0.1-0.1c0,0-0.1,0-0.1-0.1c-0.1,0-0.1-0.1-0.2-0.1c0,0-0.1,0-0.1-0.1c-0.1,0-0.1-0.1-0.2-0.1
				c-0.1-0.1-0.2-0.1-0.3-0.2c-0.1,0-0.1-0.1-0.2-0.1c0,0,0,0-0.1,0c0,0,0,0-0.1,0c-0.1,0-0.1-0.1-0.2-0.1c-0.1,0-0.1-0.1-0.1-0.1
				c0,0-0.1,0-0.1-0.1c0,0-0.1-0.1-0.1-0.1c0,0-0.1-0.1-0.1-0.1c-0.1,0-0.1-0.1-0.1-0.1c-0.1-0.1-0.2-0.1-0.3-0.2
				c-0.1,0-0.1-0.1-0.1-0.1c0,0,0,0,0,0c1.4-1,2.8-2.1,4.2-3.1c2-1.4,3.9-2.8,5.9-4.2c0.4-0.3,0.8-0.5,1.1-0.9c0,0,0,0,0,0
				c0.3-0.2,0.7-0.4,1-0.6c0.2-0.3,0.5-0.4,0.7-0.6c0-0.1-0.1-0.2-0.2-0.4c-0.9-1.2-1.7-2.4-2.6-3.6c-0.5-0.7-1.1-1.4-1.5-2.2
				c-0.1-0.2-0.2-0.3-0.3-0.4l0,0c0,0-0.1-0.1-0.1-0.1l0,0c0,0-0.1-0.1-0.1-0.1l0,0c0,0-0.1-0.1-0.1-0.1l0,0c0,0-0.1-0.1-0.1-0.1
				l0,0c0,0-0.1-0.1-0.1-0.1l0,0c0,0-0.1-0.1-0.1-0.1l0,0c0,0-0.1-0.1-0.1-0.1l0,0c0,0-0.1-0.1-0.1-0.1l0,0c0,0-0.1-0.1-0.1-0.1l0,0
				c0,0,0-0.1-0.1-0.1l0,0c0,0,0-0.1-0.1-0.1l0,0c0-0.1,0-0.1-0.1-0.1l0,0c-0.2-0.3-0.5-0.6-0.7-0.9c-0.5,0.4-0.8,0.8-1.3,1.1
				c0,0-0.1,0-0.1,0c0,0-0.1,0.1-0.1,0.1c0,0,0,0,0,0c0,0-0.1,0-0.1,0.1c0,0,0,0,0,0c0,0,0,0.1-0.1,0.1c0,0,0,0,0,0.1c0,0,0,0-0.1,0
				c0,0,0,0-0.1,0c0,0-0.1,0-0.1,0.1c0,0-0.1,0.1-0.1,0.1c0,0-0.1,0.1-0.1,0.1c0,0,0,0,0,0c0,0-0.1,0-0.1,0.1c0,0-0.1,0.1-0.1,0.1
				c-0.1,0.1-0.2,0.1-0.2,0.2c-2.5,2.4-5,4.8-7.6,7.2c0-0.1,0-0.2,0.1-0.4c0.2-1.6,0.4-3.1,0.6-4.7c0.2-1.1,0.2-2.2,0.5-3.2
				c-0.1-0.4,0.1-0.8,0.1-1.2c0.1-0.5,0.1-1.1,0.2-1.7c-1.1,0.1-2,0.2-3,0.3c-1.2,0.1-2.3,0.3-3.5,0.3c0,0,0,0-0.1,0
				c-0.1,0.1-0.2,0-0.3,0l0,0c-0.1,0.1-0.2,0-0.3,0c0,0,0,0-0.1,0c-0.1,0-0.2,0-0.3,0c0,0-0.1,0-0.1,0c-0.1,0.1-0.2,0-0.3,0l0,0
				c-0.1,0.1-0.2,0-0.3,0c0,0,0,0-0.1,0c-0.1,0-0.2,0-0.2,0c0,0-0.1,0-0.1,0c-0.1,0.1-0.2,0-0.3,0l0,0c-0.1,0.1-0.2,0-0.3,0
				c0,0,0,0-0.1,0c-0.1,0-0.2,0-0.2,0c0,0-0.1,0-0.1,0c-0.1,0.1-0.2,0-0.3,0l0,0c-0.1,0.1-0.2,0-0.3,0c-0.3,0.1-0.8-0.1-1,0.2
				c-0.2,0.3-0.2,0.6-0.2,1c0,0-0.1,0-0.1,0c-0.3,0.5-0.3,1-0.3,1.5c0,0.4,0.2,0.5,0.5,0.5c0.6,0,1.3-0.1,1.9-0.1
				c0.7,0,0.7,0,0.6,0.7c-0.1,0.9-0.3,1.8-0.2,2.8c0,0.1,0,0.2,0,0.4c0.1,0.3-0.1,0.6-0.1,0.9c0,0.1,0,0.2,0,0.3
				c0.1,0.3-0.1,0.6-0.1,0.9c0,0.3,0,0.6-0.1,0.9c-0.2,1.4-0.3,2.8-0.5,4.1c0,0.4,0,0.7,0.2,1c0.4,0.5,0.7,1.1,0.9,1.8
				c0,0.2,0,0.4,0.1,0.6c0.6,1.7,0.9,3.4,0.7,5.2c-0.1,0.9-0.1,1.8-0.4,2.7c-0.5,2.1-1.5,4-2.9,5.7c-0.5,0.6-0.9,1.3-0.7,2.1
				c0,0.1,0,0.1,0,0.2c-0.1,1.4-0.3,2.7-0.4,4c0,0.4,0,0.4,0.3,0.4c0.7,0,1.5,0.1,2.2,0.1c0.9,0,1.9,0.1,2.8,0.1
				c0.4,0.1,0.8,0,1.2,0.1c0.3,0,0.4-0.1,0.5-0.4c0.1-0.6,0.2-1.1,0.3-1.7c0.7-3.9,1.5-7.7,2.2-11.6c0.2,0,0.3,0.2,0.5,0.3
				c4.4,3.3,8.7,6.7,13,10c0.4,0.3,0.8,0.6,1.2,0.9c0.1,0.2,0.2,0.3,0.4,0.4c2.2,1.7,4.3,3.3,6.5,5c0.2,0.1,0.3,0.3,0.6,0.3
				c0,0,0,0,0,0c0.4,0.4,0.9,0.7,1.3,1.1c0.3,0,0.2-0.2,0.3-0.4C638.7,71.7,639.1,69.5,639.5,67.4z"/>
			<path class="st11" d="M733.5,63.4C733.4,63.5,733.4,63.4,733.5,63.4c-0.2-0.1-0.3-0.1-0.4-0.2c0,0,0,0-0.1,0
				c-0.1-0.1-0.3-0.1-0.4-0.2c0,0-0.1,0-0.1,0c-0.1,0-0.1,0-0.2,0c-1.5-0.6-3-1.3-4.5-1.9c-0.7-0.3-1.5-0.7-2.2-1
				c-0.4-0.2-0.4-0.2-0.6,0.3c-0.1,0.2-0.2,0.5-0.3,0.7c0,0,0,0.1-0.1,0.1c0,0.1,0,0.2-0.1,0.3c0,0,0,0.1-0.1,0.1c0,0.1,0,0.1,0,0.2
				c-0.2,0.3-0.3,0.7-0.5,1c-0.2,0.1-0.3,0.4-0.4,0.6c-1.5,3.2-3,6.5-4.4,9.7c-0.3,0.7-0.6,1.4-1,2.1c0-0.1,0-0.3,0-0.4
				c-0.1-4.2-0.2-8.4-0.2-12.5c0-0.2,0-0.4-0.1-0.6c0-0.1,0-0.1,0-0.2c0-0.1,0-0.2,0-0.2c0-0.1,0-0.1,0-0.2c-0.1-0.1,0-0.2,0-0.3
				c0-0.1,0-0.1,0-0.2c-0.1-0.1,0-0.2,0-0.3c0-0.2-0.1-0.5,0-0.7c0-0.1,0-0.2,0-0.4c0,0,0-0.1,0-0.1c-0.1-0.1,0-0.2,0-0.3
				c0-0.1,0-0.1,0-0.2c-0.1-0.1,0-0.2,0-0.3c0-0.1,0-0.1,0-0.2c0-0.1,0-0.2,0-0.3c0-0.1,0-0.1,0-0.2c0-0.1,0-0.2,0-0.4
				c0,0,0-0.1,0-0.1c-0.1-0.1,0.1-0.3,0-0.4l0,0l0,0c0-0.2-0.3-0.1-0.4-0.2c0,0-0.1,0-0.1,0c-0.1-0.1-0.3,0-0.4-0.2c0,0-0.1,0-0.1,0
				c-0.1-0.1-0.3,0-0.4-0.2c0,0-0.1,0-0.1,0c-0.1-0.1-0.3,0-0.4-0.2c0,0-0.1,0-0.1,0c-0.1-0.1-0.3,0-0.4-0.2c0,0-0.1,0-0.1,0
				c-0.1-0.1-0.3,0-0.4-0.2c0,0-0.1,0-0.1,0c-1.1-0.4-2.1-0.9-3.2-1.3c-1.6-0.6-3.2-1.3-4.8-2c-0.2-0.1-0.3,0-0.4,0.2
				c-0.1,0.5-0.3,1.1-0.4,1.6c0,0.1-0.1,0.2-0.1,0.3c-0.2,0.1-0.2,0.3-0.3,0.5c0,0.2-0.1,0.4,0,0.5c0.5,0.4,1.2,0.6,1.8,0.9
				c0.3,0.2,0.5,0.4,0.4,0.8c-0.3,0.8-0.5,1.6-0.7,2.3c0,0.1,0,0.1-0.1,0.2c-0.1,0.3,0,0.7-0.2,1c-0.1,0.5-0.3,1-0.4,1.5
				c-0.1,0.2-0.1,0.4,0.1,0.7c0.2,0.3,0.4,0.6,0.6,1c0.5,1,1,2,1.2,3.2c-0.1,0.1,0,0.3,0,0.4c0.6,3.2,0,6.2-1.6,9
				c0,0-0.1,0.1-0.1,0.1c0,0.1-0.1,0.2-0.1,0.3c-0.2,0.4-0.4,0.7-0.7,1.1c-1.3,1.8-2.9,3.3-4.7,4.5c-0.5,0.3-0.9,0.6-1.1,1.2
				c-0.3,1.3-0.8,2.6-1.1,3.9c-0.1,0.4,0,0.6,0.4,0.8c0.6,0.2,1.3,0.4,1.9,0.7c0.8,0.3,1.6,0.6,2.4,0.9c0.2,0.1,0.4,0.2,0.6,0.1
				c0,0,0,0,0,0c0.2,0.2,0.5,0.2,0.8,0.3c0.2,0.1,0.3,0.2,0.5,0c0-0.1,0-0.1,0-0.2c0.3-0.3,0.4-0.7,0.5-1.1c0.5-1.4,1.1-2.8,1.6-4.2
				c0.9-2.3,1.7-4.5,2.6-6.8c0.4-1.2,0.9-2.3,1.3-3.5c0,0.1,0,0.2-0.1,0.3c-0.6,3.3-1.1,6.6-1.7,9.9c0,0.1,0,0.2-0.1,0.3
				c0,0.1,0,0.3-0.1,0.4c-0.4,2.7-0.8,5.3-1.3,8c-0.2,0.8-0.2,1.6-0.3,2.3c0,0.2-0.1,0.5,0,0.7c0.5,0.2,1,0.5,1.5,0.8
				c1.1,0.5,2.1,1.1,3.2,1.6c0.3,0.2,0.7,0.4,1.1,0.6c0.2-0.4,0.4-0.7,0.7-1.1c0.1-0.2,0.1-0.3,0.2-0.5c0.5-1,1.1-1.9,1.6-2.9
				c0.4-0.7,0.8-1.4,1.2-2.1c0.1-0.1,0.1-0.2,0.2-0.3c0,0,0-0.1,0-0.1c0.1-0.1,0.1-0.1,0.1-0.2l0,0c0-0.1,0.1-0.2,0.1-0.3
				c0.6-1.1,1.2-2.2,1.8-3.3c0.5-0.8,0.9-1.7,1.4-2.5c0.1-0.1,0.1-0.2,0.1-0.2l0,0l0,0c0.1-0.1,0-0.2,0.2-0.3
				c0.1-0.1,0.1-0.2,0.2-0.3l0,0c0.1-0.1,0.1-0.2,0.2-0.3c0-0.1,0.1-0.2,0.1-0.3c0.8-1.5,1.7-3,2.5-4.5c0.5-0.8,0.9-1.7,1.4-2.5
				c0-0.1,0.1-0.2,0.1-0.3c0.9-1.5,1.7-3.1,2.6-4.6c0.4-0.8,0.8-1.5,1.3-2.2c0-0.1,0.1-0.2,0.1-0.3c0.6-1.1,1.2-2.2,1.8-3.2
				c0.5-0.9,1.1-1.9,1.6-2.8C733.6,63.6,733.6,63.5,733.5,63.4z M711.9,73.1C711.9,73.1,711.9,73.1,711.9,73.1
				C711.9,73.1,711.9,73.1,711.9,73.1C711.9,73.1,711.9,73.1,711.9,73.1z"/>
			<polygon class="st11" points="721.9,84.6 721.9,84.6 721.9,84.6 			"/>
			<path class="st11" d="M684.8,84c-0.1-0.2,0.1-0.4,0-0.6c0,0,0-0.1,0-0.1c0.2-0.7,0.2-0.8-0.4-1.3c-1.3-0.9-2.3-2.1-3.1-3.4
				c0,0-0.1-0.1-0.1-0.1c0,0-0.1-0.1-0.1-0.1c-1.4-2.7-2-5.5-1.3-8.5c0.5-2.5,1.6-4.7,3.2-6.7c0.3-0.3,0.6-0.6,0.8-1
				c0,0,0-0.1,0.1-0.1c0,0,0-0.1,0.1-0.1l0,0c0,0,0.1-0.1,0.1-0.1c0,0,0,0,0,0l0,0c0,0,0,0,0,0c0.1,0,0.1-0.1,0.1-0.1
				c0.3-0.4,0.6-0.6,1-0.9c0.3-0.2,0.4-0.5,0.4-0.8c0-1.7,0.1-3.3,0.2-5c0-0.9,0-1.7,0.1-2.6c0-0.1,0-0.2,0-0.2
				c0.1-1.5,0.1-3.1,0.2-4.6c0-0.8,0-1.7,0.1-2.5c-0.1-0.3,0-0.6,0-1c0-0.2-0.1-0.3-0.3-0.4c-0.6-0.1-1.3-0.2-1.9-0.4
				c-1.1-0.2-2.2-0.4-3.4-0.6c-0.5-0.1-0.4-0.1-0.6,0.3c-0.1,0.2-0.1,0.5-0.3,0.7c0,0-0.1,0.1-0.1,0.1c0,0.1,0,0.2,0,0.2
				c0,0-0.1,0-0.1,0.1c-0.1,0.1-0.1,0.1-0.1,0.2c0,0.1-0.1,0.3-0.2,0.4c0,0,0,0.1-0.1,0.1c0,0.2-0.1,0.3-0.2,0.5
				c-0.2,0.5-0.4,1.1-0.6,1.6c-1,2.6-2,5.2-3,7.8c0,0,0,0,0,0c0.1-2.7,0.1-5.5,0.1-8.2c0-0.1,0-0.2-0.1-0.3c-0.1-0.8,0-1.5,0-2.3
				c0-0.2,0.1-0.4-0.1-0.5c-0.2,0-0.4,0-0.6-0.1c-2.4-0.5-4.8-0.9-7.2-1.4c-0.1,0-0.2,0-0.3-0.1c-0.2,0-0.3,0-0.3,0.2
				c-0.2,0.4-0.3,0.9-0.5,1.3c0,0-0.1,0-0.1,0c-0.2,0.2-0.2,0.4-0.3,0.6c-0.3,0.8-0.6,1.7-0.9,2.5c0,0.1-0.1,0.1-0.1,0.2
				c0,0.1-0.1,0.3-0.2,0.4c0,0.1-0.1,0.1-0.1,0.2c0,0.2-0.1,0.3-0.2,0.4c-0.4,1.1-0.8,2.2-1.2,3.3c0,0,0,0.1-0.1,0.1
				c-0.1,0.2-0.1,0.4-0.2,0.6c-0.3,0.8-0.6,1.6-0.9,2.4c-0.4,1.2-1,2.4-1.3,3.6c0,0.3,0.3,0.5,0.4,0.8c0.5,0.6,0.9,1.2,1.4,1.8
				c0.2,0.2,0.2,0.4-0.1,0.5c-1.1,0.7-2.2,1.5-3.3,2.2c-0.5,0.3-0.8,0.7-1,1.3c-0.1,0.2,0,0.4-0.1,0.6c0,0.1-0.1,0.3-0.1,0.4
				c-0.4,1-0.8,2.1-1.2,3.1c-0.2,0.6-0.4,1.2-0.7,1.7c-0.3,0.4,0.1,0.5,0.3,0.5c1.3,0.5,2.6,1,3.9,1.5c0.7,0.3,1.5,0.6,2.2,0.8
				c0.1,0,0.2,0,0.2,0c0.3,0.1,0.7,0.2,1,0.4c0.3,0.1,0.3,0.1,0.4-0.2c0.2-0.7,0.5-1.3,0.7-2c0.3-0.8,0.5-1.5,0.9-2.3
				c0-0.1,0.1-0.3,0.1-0.4c0.3-0.7,0.5-1.5,0.8-2.2c0.6-1.5,1.1-3.1,1.7-4.6c0.2,0.2,0.2,0.4,0.3,0.7c0.6,2.4,1.2,4.8,1.8,7.2
				c0.1,0.3,0.1,0.5,0.2,0.8c0.2,0.5,0.2,1,0.5,1.4c0,0,0,0,0,0c0.1,0.4,0.2,0.8,0.3,1.3c0.2-0.1,0.2-0.3,0.3-0.4
				c0.5-0.8,1-1.7,1.6-2.5c0-0.2,0.1-0.3,0.2-0.4c0.5-0.8,0.9-1.5,1.4-2.2c0.4-0.7,0.9-1.3,1.2-2c0,0,0,0,0,0c0.1,0,0,0.1,0,0.2
				c0,0.2,0,0.3,0,0.5c-0.1,1.5-0.1,3-0.2,4.5c-0.1,2.3-0.2,4.6-0.3,6.8c0,0.7-0.2,1.3,0,2c0,0.4,0,0.9,0,1.3c0,0.5,0,0.5,0.4,0.6
				c1,0.4,2,0.7,3,1.1c1,0.4,2.1,0.7,3.1,1.1c0.5,0.3,1,0.3,1.5,0.6c0.1,0.1,0.3,0.1,0.4,0.2c0,0,0.1,0,0.1,0
				c0.2-0.1,0.1-0.3,0.1-0.5C684.8,84.1,684.8,84,684.8,84z"/>
			<path class="st11" d="M587,36.7c0-0.5,0-0.9,0-1.4c-0.1-0.1,0-0.2-0.1-0.3l0,0c0-0.1-0.1-0.2-0.1-0.3c-0.4-2-1.3-3.7-2.6-5.2
				c-0.4-0.5-0.9-0.9-1.3-1.4c0-0.1-0.1-0.1-0.2-0.2l0,0c0-0.1-0.1-0.1-0.2-0.1c0,0-0.1-0.1-0.1-0.1l0,0c0-0.1-0.1-0.1-0.2-0.2
				c0,0,0,0,0,0l0,0c0,0,0,0,0,0c0-0.1-0.1-0.1-0.2-0.1l0,0c0,0-0.1-0.1-0.1-0.1l0,0c0-0.1-0.1-0.1-0.2-0.2c0,0,0,0,0,0l0,0l0,0
				c0-0.1-0.1-0.1-0.2-0.1l0,0c0-0.1-0.1-0.1-0.2-0.1c0,0,0,0,0,0l0,0c0,0,0,0,0,0c0-0.1-0.1-0.1-0.2-0.1l0,0c0-0.1-0.1-0.1-0.2-0.1
				c0,0,0,0-0.1,0c0-0.1-0.1-0.1-0.2-0.1l0,0c-0.1-0.1-0.1-0.1-0.2-0.1c0,0-0.1,0-0.1,0c-0.1-0.1-0.1-0.1-0.2-0.1c0,0,0,0,0,0l0,0
				c0,0,0,0,0,0c-0.1-0.1-0.2-0.1-0.3-0.2l0,0c-0.8-0.4-1.7-0.8-2.6-1.1c-3.2-1.2-6.5-1.7-9.9-1.8c-1.1,0-2.1,0-3.2,0
				c0,0-0.1,0-0.1,0c-0.1,0.1-0.2,0-0.3,0c0,0-0.1,0-0.1,0c-0.1,0.1-0.2,0-0.3,0c0,0,0,0-0.1,0c-0.1,0-0.2,0-0.3,0c0,0-0.1,0-0.1,0
				c-0.1,0.1-0.2,0-0.3,0l0,0c-0.1,0.1-0.2,0-0.3,0c0,0,0,0-0.1,0c-0.1,0-0.2,0-0.2,0c0,0-0.1,0-0.1,0c-0.1,0-0.2,0-0.2,0
				c0,0-0.1,0-0.1,0c-0.1,0-0.2,0-0.2,0c-0.1,0-0.2,0-0.2,0.1c-3.6,0.5-7.1,1.4-10.5,2.6c-0.1,0-0.2,0.1-0.3,0.1l0,0
				c0,0-0.1,0-0.1,0.1c0,0,0,0-0.1,0c-0.1,0-0.1,0-0.2,0.1c0.1,0.2,0.1,0.5,0.2,0.7l0,0c0.1,0.2,0.1,0.4,0.2,0.6
				c0.3,0.9,0.7,1.9,1,2.8c0,0,0,0,0,0c0,0,0,0.1,0,0.1c0,0,0,0.1,0,0.1c0,0.1,0,0.1,0,0.2c0,0,0,0.1,0,0.1c0,0.1,0,0.2,0.1,0.2
				c0.6,1.6,1.1,3.2,1.7,4.7c0.2,0.6,0.3,0.6,0.9,0.5c0.2,0,0.4-0.1,0.5-0.1c0.8-0.2,1.6-0.4,2.4-0.7c0.3-0.1,0.5-0.1,0.6,0.3
				c0.2,1.1,0.5,2.3,0.8,3.4c0.6,2.6,1.2,5.2,1.8,7.8c0.6,2.6,1.3,5.2,1.8,7.9c0,0.2,0.1,0.4,0.3,0.6c0.1,0.1,0.1,0.3,0.1,0.4
				c0.6,2.4,1.1,4.7,1.7,7.1c0.1,0.5,0.3,1,0.3,1.5c0.1,0.1,0.1,0.3,0.1,0.4c0.3,1.5,0.7,2.9,1,4.4c0.1,0.5,0.3,1,0.3,1.5
				c0.1,0.1,0.1,0.3,0.3,0.2c0.1,0,0.2,0,0.2,0c0.2-0.1,0.4-0.1,0.5-0.1c1.6-0.2,3.1-0.4,4.7-0.6c0.6-0.1,1.1-0.1,1.7-0.2
				c0.2,0,0.3-0.1,0.3-0.3c0-0.1,0-0.3,0-0.4c0-0.8-0.1-1.6-0.1-2.4c-0.1-0.1,0-0.2,0-0.3c0,0,0-0.1,0-0.1c0-0.1,0-0.2-0.1-0.2
				c-0.1-1.4-0.2-2.7-0.3-4.1c-0.1-0.9-0.2-1.7-0.1-2.6c-0.1-0.1,0-0.2,0-0.2c-0.2-2.4-0.3-4.8-0.5-7.3c1-0.5,2.1-0.9,3.1-1.4
				c0.9-0.3,1.6-0.8,2.4-1.2c0.6-0.4,1.2-0.7,1.7-1.3c0.2,0,0.3-0.1,0.5-0.3c1.1-0.9,2.2-1.9,3.1-3c0.3-0.4,0.6-0.7,0.8-1.2
				c0,0,0-0.1,0.1-0.1c0,0,0-0.1,0.1-0.1c0,0,0-0.1,0.1-0.1c0,0,0-0.1,0.1-0.1c0.1-0.2,0.3-0.4,0.4-0.6
				C586.1,41.1,586.9,39,587,36.7z"/>
			<path class="st11" d="M705.9,68.2c-0.1-0.8-0.2-1.7-0.7-2.4c-0.4-0.9-0.9-1.7-1.6-2.5c-2-2.2-4.5-3.2-7.4-3.3
				c-2.7-0.1-5.2,0.7-7.5,2.2c-0.3,0.2-0.6,0.3-0.8,0.6c0,0-0.1,0-0.1,0c-0.1,0-0.2,0-0.2,0.1c-0.1,0-0.1,0.1-0.2,0.1
				c0,0-0.1,0.1-0.1,0.1c-0.1,0.1-0.1,0.1-0.2,0.2c-2.6,2.2-4.2,4.9-4.6,8.3c0,0.2,0,0.4,0,0.7c0,2.5,0.7,4.7,2.4,6.5
				c0.1,0.2,0.3,0.3,0.5,0.4c0,0,0.1,0,0.1,0.1c1.5,1.4,3.4,2.2,5.4,2.5c0.8,0.1,1.6,0.1,2.4,0.1c0.9,0.1,1.7-0.1,2.5-0.3
				c0,0,0.1,0,0.1,0c0.7-0.2,1.4-0.5,2.1-0.8c0.5-0.3,1.1-0.5,1.6-0.9c0.2,0,0.3-0.1,0.5-0.2c1.6-1.1,2.9-2.5,4-4.1
				C705.5,73.1,706.1,70.7,705.9,68.2z"/>
			<path class="st11" d="M656,57.6C656,57.5,656,57.5,656,57.6c-0.1-0.1-0.1-0.2-0.2-0.2c0,0-0.1-0.1-0.1-0.1l0,0
				c0,0-0.1-0.1-0.1-0.1l0,0c-0.8-1-1.5-2-2.3-3c-0.6,0.5-1.2,0.9-1.8,1.3c0,0,0,0,0,0c-0.3,0-0.5,0.1-0.7,0.3c0,0-0.1,0.1-0.1,0.1
				c0,0-0.1,0.1-0.1,0.1c-1.4,0.6-2.8,0.8-4.3,0.8c-0.6,0-1.1,0-1.6-0.2c1-0.7,1.9-1.4,2.9-2.1c2.2-1.6,4.4-3.2,6.6-4.8
				c0.2-0.2,0.5-0.3,0.7-0.5c0,0,0.1-0.1,0.1-0.1c0.2-0.3,0.6-0.4,0.8-0.8c0.7-0.4,1.3-0.9,1.9-1.4c-0.1-0.1,0-0.2-0.1-0.2
				c0,0,0,0,0,0l0,0c0,0,0,0,0,0c0-0.1,0-0.1-0.1-0.1c0,0,0,0,0,0l0,0c0,0,0,0,0,0c0-0.1,0-0.1-0.1-0.1l0,0c0-0.1,0-0.1-0.1-0.1l0,0
				c0-0.1,0-0.1-0.1-0.1l0,0c0,0,0-0.1-0.1-0.1l0,0c0,0-0.1-0.1-0.1-0.1l0,0c0,0-0.1-0.1-0.1-0.1l0,0c0,0-0.1-0.1-0.1-0.1l0,0
				c0,0-0.1-0.1-0.1-0.1l0,0c0,0-0.1-0.1-0.1-0.1l0,0c0,0-0.1-0.1-0.1-0.1l0,0c-0.1-0.2-0.3-0.3-0.4-0.5c-1.1-1.3-2.4-2.4-3.9-3.2
				c-2.1-1.1-4.3-1.6-6.6-1.6c-2.7,0-5.4,0.5-7.8,1.8c-0.5,0.3-1,0.6-1.4,1c-0.2,0.1-0.4,0.2-0.5,0.3c-0.5,0.2-0.9,0.6-1.2,1
				c-2.3,2.4-3.2,5.3-3.2,8.5c0,2.3,0.7,4.5,2.1,6.3c0.5,0.6,0.9,1.3,1.7,1.7c0.1,0.1,0.2,0.1,0.3,0.2c1.7,1.5,3.8,2.4,6,2.9
				c2.2,0.5,4.4,0.5,6.7,0.2c1-0.1,2-0.3,3.1-0.5c0.2-0.1,0.4,0,0.5-0.1c1.5-0.4,2.8-1,4.1-1.6c0.1-0.1,0.2-0.1,0.2-0.2
				c0,0,0,0,0-0.1c0.7-0.3,1.3-0.8,1.9-1.2C657.4,59.4,656.7,58.5,656,57.6z"/>
		</g>
		<g>
			<path class="st12" d="M641.1,48.8c0.3-0.3,0.6-0.7,1-0.9c1.2-0.3,2.4-0.2,3.4,0.5c0,0,0,0.1,0,0.1c-0.4,0.4-0.9,0.7-1.3,1.1
				c-1.2,0.9-2.3,1.8-3.5,2.7c-0.3-0.6-0.2-1.2-0.2-1.8C640.5,49.9,640.8,49.4,641.1,48.8z"/>
			<path class="st12" d="M645.6,48.4C645.6,48.5,645.6,48.5,645.6,48.4c0,0.1-0.1,0.1-0.1,0.1L645.6,48.4
				C645.5,48.4,645.5,48.4,645.6,48.4z"/>
			<path class="st12" d="M574.2,43.2c0-0.9-0.2-1.8-0.3-2.8c-0.1-0.8-0.2-1.5-0.2-2.3c0.1-0.1,0.3,0,0.4,0c1.2,0.4,1.9,1.4,1.8,2.7
				c-0.1,0.8-0.1,1.6-0.6,2.2c-0.1,0.2-0.3,0.3-0.2,0.6c-0.2,0.2-0.5,0.4-0.8,0.5C574.3,43.8,574.3,43.5,574.2,43.2z"/>
		</g>
		<g>
			<path class="st13" d="M738.1,62.2c-0.1,0-0.2-0.1-0.3-0.1c-4.6-2.1-9.2-4.2-13.8-6.3c-0.1,0-0.2-0.1-0.3,0
				c-0.3,0.5-0.5,1.1-0.8,1.6c-0.2,0.4-0.3,0.7-0.5,1.1c-0.1,0.3-0.2,0.5-0.4,0.8c0,0.1-0.1,0.2-0.1,0.3c0,0,0,0.1-0.1,0.1
				c-0.1,0.2-0.2,0.4-0.2,0.6c0,0.1-0.1,0.2-0.1,0.3c0,0,0,0.1-0.1,0.1c0,0.1,0,0.1-0.1,0.2c0,0,0,0.1,0,0.1c-0.1,0,0-0.1,0-0.1
				c0,0,0-0.1,0-0.1c0-0.1,0-0.2,0-0.3c0-0.1,0-0.1,0-0.2c0-0.1,0-0.2,0-0.3c0-0.1,0-0.1,0-0.2c0-0.1,0-0.2,0-0.3c0-0.1,0-0.2,0-0.3
				c0-0.5-0.1-1,0-1.5c0-0.3,0-0.7-0.1-1c0,0,0,0,0,0c0,0,0.1,0,0.1-0.1c-0.1,0-0.1-0.1-0.2-0.1c0-0.1,0-0.1,0-0.2
				c0.1-0.4,0-0.8,0-1.3c0-0.3-0.1-0.5-0.4-0.6c-4.9-2.1-9.8-4.2-14.7-6.3c-0.7-0.3-1.3-0.6-2-0.8c-0.4,0.6-0.4,1.3-0.5,2
				c0,0.2,0,0.5-0.1,0.7c-0.2,1-0.4,2-0.6,3.1c0,0.1,0,0.3,0.1,0.4c-0.1,0.4-0.2,0.8-0.2,1.2c-0.1,0.6-0.2,1.1-0.3,1.7
				c0,0.3-0.2,0.6-0.1,0.9c0.5,0.5,1.1,0.6,1.7,0.9c0.1,0,0.2,0,0.3,0c0,0,0,0,0,0c-0.1,0.2,0.2,0.2,0.2,0.4c0,0.4-0.2,0.7-0.3,1.1
				c0,0.2-0.2,0.3-0.4,0.1c-0.4-0.3-0.8-0.5-1.1-0.8c-3.6-2.6-9.6-2.1-13.5-0.4c-0.1,0-0.2,0.1-0.3,0.1c0-1.1,0.1-2.3,0.1-3.4
				c0-0.8,0.1-1.6,0.1-2.4c0-0.2,0-0.3,0-0.5c0.1-1.7,0.1-3.3,0.2-5c0-0.8,0.1-1.6,0-2.4c0.1-1.1,0.1-2.2,0.1-3.3
				c0-0.4,0-0.4-0.4-0.5c-3.7-0.7-7.4-1.4-11.1-2.1c-0.1,0-0.3-0.1-0.4,0c-0.3,0.3-0.4,0.7-0.5,1.1c-0.2,0.6-0.3,0.6-0.9,0.5
				c-0.7-0.1-1.4-0.3-2.2-0.4c-0.2,0.1-0.4,0-0.6,0c-2.1-0.4-4.2-0.8-6.2-1.2c-0.9-0.2-1.8-0.3-2.7-0.5c-0.1,0-0.2,0-0.2,0
				c0.1,0,0.1,0.1,0.1,0.1c0,0.1-0.1,0.1-0.1,0.2c0,0.1-0.1,0.1-0.1,0.2c0,0.1-0.1,0.3-0.1,0.4c0,0.1-0.1,0.2-0.1,0.3
				c0,0.1-0.1,0.3-0.1,0.4c0,0.1,0,0.1,0,0.2c0,0,0,0,0,0c0,0.1-0.1,0.1-0.1,0.2c-0.1,0.3-0.2,0.6-0.4,0.9c-0.2,0.8-0.5,1.6-0.8,2.4
				c-0.1,0.4-0.2,0.8-0.5,1.2c0,0.2-0.1,0.4-0.1,0.6c-0.2,0.3-0.3,0.7-0.5,1.1c-0.2-0.3-0.4-0.6-0.5-0.9l0,0c0,0,0,0,0,0
				c0,0,0,0,0,0c-0.3-0.9-0.8-1.7-1.4-2.4c-0.2,0-0.3-0.2-0.4-0.4c-1.3-1.7-2.9-3-4.7-4.1c-1.1-0.6-2.2-1.1-3.4-1.4
				c-0.4-0.2-0.8-0.2-1.2-0.3c-0.1,0-0.2-0.1-0.1-0.2c0.1,0,0.2,0,0.2-0.1c0.1,0,0.2,0,0.2-0.1c0.1,0,0.2,0,0.2-0.1l0,0
				c0.1,0,0.2,0,0.2-0.1l0,0c0,0,0.1-0.1,0.2-0.1l0,0l0,0c0,0,0.1-0.1,0.1-0.1c0,0,0,0,0,0c0,0-0.1,0-0.1,0.1c0.1,0,0.1,0,0.1,0
				c0.1,0,0.2,0,0.2-0.1c0.1,0,0.2,0,0.2-0.1c0.1,0,0.2,0,0.2-0.1c0.1,0,0.2,0,0.2-0.1c0.1,0,0.2,0,0.2-0.1l0,0
				c0.1,0,0.1-0.1,0.2-0.1l0,0l0,0c0,0,0.1-0.1,0.1-0.1c0,0,0,0,0,0c0,0-0.1,0-0.1,0.1c0.1,0,0.1,0,0.1,0c0.1,0,0.2,0,0.2-0.1
				c0.1,0,0.2,0,0.2-0.1c0.1,0,0.2,0,0.2-0.1c0.1,0,0.2,0,0.2-0.1l0,0c0.1,0,0.2,0,0.2-0.1l0,0c0.1,0,0.1-0.1,0.2-0.1l0,0l0,0
				c0,0,0.1-0.1,0.1-0.1c0,0,0,0,0,0c-0.1,0-0.1,0-0.1,0.1c0.1,0,0.1,0,0.1,0c0.1,0,0.2,0,0.2-0.1c0.1,0,0.2,0,0.2-0.1
				c0.1,0,0.2,0,0.2-0.1c0.1,0,0.2,0,0.2-0.1l0,0l0,0l0,0c0,0,0,0,0,0c0,0,0,0,0,0l0,0c0.1,0,0.2,0,0.2-0.1l0,0c0,0,0.1-0.1,0.2-0.1
				l0,0l0,0c0,0,0.1-0.1,0.1-0.1c0,0,0,0,0,0c-0.1,0-0.1,0-0.1,0.1c0.1,0,0.1,0,0.1,0c0.1,0,0.2,0,0.2-0.1c0.1,0,0.2,0,0.2-0.1
				c0.1,0,0.2,0,0.2-0.1c0.1,0,0.2,0,0.2-0.1c0.3,0,0.5-0.1,0.8-0.3c0,0,0,0,0,0c0.1,0,0.2,0,0.2-0.1c0,0,0,0,0,0
				c0.1,0,0.2,0,0.3-0.1c1.1-0.3,2.2-0.7,3.2-1c0.1,0,0.2-0.1,0.2-0.1c0.1,0,0.2-0.1,0.1-0.3c-0.4-0.8-0.7-1.7-1.1-2.5
				c0-0.2-0.1-0.4-0.2-0.5c-1.2-2.9-2.5-5.8-3.7-8.8c-0.1-0.2-0.2-0.3-0.2-0.5c0,0-0.1,0-0.1,0c0,0,0,0.1,0,0.1
				c-0.1,0-0.2,0-0.2,0.1c0,0,0,0,0.1,0c0,0,0,0,0,0c-0.8,0.6-1.6,1.2-2.4,1.8c0,0-0.1,0.1-0.1,0.1c0,0,0,0-0.1,0
				c0,0-0.1,0.1-0.1,0.1c0,0,0,0-0.1,0c0,0-0.1,0.1-0.1,0.1c0,0-0.1,0.1-0.1,0.1c-0.4,0.3-0.8,0.6-1.1,0.9c-0.3,0.2-0.4,0.4-0.7,0.6
				c0,0-0.1,0.1-0.1,0.1c0,0,0,0-0.1,0c0,0-0.1,0-0.1,0.1c0,0,0,0-0.1,0c0,0-0.1,0-0.1,0.1c0,0-0.1,0.1-0.1,0.1
				c-0.3,0.3-0.7,0.5-1,0.8c-0.4,0.3-0.7,0.6-1.1,0.8c-0.3,0.2-0.6,0.5-0.9,0.7c0,0-0.1,0-0.1,0.1c0,0-0.1,0.1-0.1,0.1
				c-0.3,0.3-0.7,0.6-1.1,0.9c-0.2,0.2-0.6,0.4-0.8,0.6c0,0-0.1,0.1-0.1,0.1c0,0,0,0,0,0c0,0-0.1,0.1-0.1,0.1c0,0-0.1,0-0.1,0.1
				c-0.1,0.1-0.4,0.2-0.4,0.4c-0.3,0.1-0.4,0.4-0.7,0.5c-0.3,0.3-0.5,0.5-0.9,0.7c0,0.1-0.1,0.2-0.1,0.2c-0.4,0.2-0.7,0.5-1.1,0.8
				c-0.7,0.5-1.3,1-2,1.5c-0.1,0.1-0.1,0.2-0.2,0.3c-0.1,0.5,0.3,0.9,0.5,1.3c0.1,0.2,0.2,0.6,0.5,0.7c0,0,0,0,0,0
				c-0.1,0.1,0,0.2,0,0.3c0,0.2,0.1,0.3,0.2,0.4c0.2,0.3,0.2,0.5-0.2,0.6c-0.7,0.1-1.3,0.4-2,0.6c0,0-0.1,0-0.1,0c0,0-0.1,0-0.1,0
				c-0.2,0.1-0.5,0.1-0.8,0.3c0,0.1-0.2,0.2-0.3,0.2c-0.2,0.1-0.4,0.1-0.6,0.2c-0.6,0.1-1.2,0.3-1.7,0.5c-0.2,0-0.3-0.1-0.4-0.3
				c-0.3-0.3-0.5-0.7-0.8-1c-0.8-1-1.5-2-2.3-2.9c0,0,0-0.1-0.1-0.1l0,0c0-0.1-0.1-0.1-0.1-0.2c0,0,0,0,0,0c-0.1,0-0.1-0.1-0.1-0.1
				c0,0-0.1-0.1-0.1-0.1l0,0c0,0-0.1-0.1-0.1-0.1l0,0c0,0-0.1-0.1-0.1-0.1l0,0c0,0-0.1-0.1-0.1-0.1l0,0c0,0,0-0.1-0.1-0.1
				c-1.6-2.1-3.3-4.3-4.9-6.4c-0.1-0.1-0.1-0.2-0.3-0.2c-0.3,0.3-0.6,0.6-0.8,0.9c0,0.1-0.1,0.1-0.1,0.2c0,0-0.1,0.1-0.1,0.1
				c0,0-0.1,0.1-0.1,0.1c0,0-0.1,0.1-0.1,0.1c-0.1,0.2-0.2,0.3-0.4,0.5c-0.1,0.2-0.2,0.3-0.4,0.4c0,0-0.1,0.1-0.1,0.1
				c0,0-0.1,0.1-0.1,0.1c-0.1,0.2-0.2,0.3-0.4,0.5c0,0.1-0.1,0.1-0.1,0.2c0,0-0.1,0.1-0.1,0.1c-0.1,0.2-0.2,0.3-0.4,0.5
				c-0.2,0.2-0.4,0.4-0.5,0.6c0,0.1-0.1,0.1-0.1,0.2c0,0-0.1,0.1-0.1,0.1c-0.1,0.2-0.2,0.3-0.3,0.5c-0.2,0-0.3,0.2-0.3,0.4
				c0,0,0,0.1,0,0.1c0,0-0.1,0-0.1,0c-0.2,0-0.3,0.3-0.5,0.3c-0.1-0.1-0.1-0.2-0.1-0.3c0,0,0-0.1,0.1-0.1c0.3-0.9,0.3-1.8,0.5-2.7
				c0-0.2,0-0.3,0.1-0.4c0-0.1,0.1-0.1,0.1-0.2c0,0,0-0.1,0-0.1c-0.1-0.2,0-0.4,0-0.6c0.1-0.6,0.2-1.2,0.4-1.8c-0.2,0-0.4,0-0.6,0
				c-4.3,0.5-8.7,1-13,1.6c-1.8,0.2-3.6,0.4-5.3,0.7c0,0.1,0,0.1,0,0.2c0,0.2,0,0.3,0,0.5c0,0.2-0.1,0.4-0.1,0.7
				c0.1,0.1,0,0.3,0,0.4c-0.1,0.6-0.2,1.1-0.3,1.7c0.1,0.2,0,0.3,0,0.5c-0.1,0.5-0.2,1-0.3,1.4c0.1,0.2,0,0.3,0,0.5
				c-0.1,0.5-0.2,1.1-0.3,1.6c0.1,0.1,0.1,0.2,0,0.3c0,0-0.1,0.1-0.1,0.1c-0.2,0.4-0.2,0.9-0.3,1.4c0,0.2,0,0.4,0.2,0.5
				c0.3,0.1,0.6,0,0.9,0c0.6,0,1.2-0.1,1.8-0.1c0.3,0,0.2,0.3,0.2,0.5c-0.1,1.2-0.2,2.4-0.3,3.7c0,0.3-0.2,0.3-0.4,0.2
				c-0.1-0.1-0.2-0.1-0.3-0.2c0,0-0.1-0.1-0.1-0.1c-0.4-0.2-0.7-0.4-1.1-0.6c-0.5-0.2-0.9-0.4-1.3-0.6c-0.1,0.2-0.2,0.1-0.3,0.1
				c-1.5-0.5-3.1-0.7-4.7-0.7c-2.2,0-4.3,0.5-6.3,1.3c-0.1,0.1-0.2,0.2-0.4,0.1c0-0.1,0-0.2,0.1-0.3c0.5-1.3,0.9-2.6,1-3.9
				c0.1-0.9,0.2-1.8,0-2.7c0-0.1,0-0.2,0-0.4c-0.2-1.9-0.8-3.6-1.8-5.3c-0.6-1-1.2-2-2-2.8c0,0,0-0.1,0-0.1
				c-1.4-1.4-2.8-2.8-4.6-3.8c-2-1.2-4.3-1.9-6.5-2.5c-2.4-0.6-4.9-0.9-7.4-1c-3.2-0.1-6.3,0.2-9.5,0.8c-1.2,0.2-2.5,0.4-3.7,0.8
				c-0.3,0-0.6,0.1-0.9,0.2c-2.9,0.7-5.6,1.9-8.3,2.9c-0.1,0-0.1,0.1-0.2,0.1c0.3,0.2,0.2,0.6,0.4,0.8c0,0.2,0.1,0.4,0.2,0.6
				c0,0,0,0.1,0,0.1c0,0.1,0.1,0.3,0.1,0.4c0,0.1,0,0.2,0.1,0.2c0,0,0,0,0,0c0.2,0.4,0.4,0.9,0.5,1.3c0.1,0.2,0.2,0.4,0.3,0.6
				c0.2,0.4,0.2,0.8,0.4,1.1c0,0.1,0,0.1,0,0.2c0.3,0.5,0.5,1.1,0.6,1.7c0.3,0.5,0.4,1,0.5,1.6c0.2,0.4,0.4,0.8,0.5,1.3
				c0,0.1,0,0.2,0.1,0.2l0,0c0.3,0.5,0.4,1.1,0.6,1.7c0.2,0.4,0.3,0.7,0.4,1.1c0,0.1,0,0.2,0.1,0.2l0,0c0,0,0.1,0,0.1,0
				c0,0.2,0.1,0.3,0.1,0.5c0.1,0.4,0.3,0.7,0.3,1c0.3,0.5,0.4,1.1,0.6,1.7c0.9-0.2,1.8-0.4,2.7-0.7c0.1,0,0.2,0,0.3-0.1
				c0.1,0,0.2,0,0.2-0.1c0.1,0,0.1,0,0.2,0c0.1-0.1,0.1-0.1,0.2-0.1c0.1,0.4,0.2,0.7,0.3,1.1c0.2,0.8,0.4,1.6,0.5,2.4
				c0.2,0.7,0.4,1.4,0.5,2.2c0.1,0.5,0.3,1,0.4,1.5c0,0,0,0.1,0,0.1c0,0,0,0.1,0,0.1c0,0,0,0.1,0.1,0.1c0,0,0,0,0,0c0,0,0,0.1,0,0.1
				c0,0.1,0,0.2,0.1,0.2c0.2,0.5,0.3,0.9,0.3,1.4c0.2,0.9,0.5,1.8,0.6,2.7l0,0c0,0.1,0,0.2,0.1,0.2c0,0.1,0.1,0.1,0.1,0.2
				c0.2,0.9,0.4,1.8,0.6,2.7c0,0,0,0.1,0,0.1c0,0,0,0,0,0c0,0.1,0,0.2,0,0.2c0,0,0,0,0,0c0,0,0,0,0,0c0,0.1,0,0.2,0.1,0.2
				c0.2,0.6,0.3,1.1,0.4,1.7l0,0c0,0.1,0,0.2,0.1,0.2c0,0,0,0.1,0,0.1c0,0.1,0,0.1,0.1,0.1c0.1,0.4,0.3,0.8,0.3,1.3l0,0
				c0,0.1,0,0.2,0.1,0.2c0.2,0.4,0.2,0.9,0.4,1.4c0.2,0.9,0.4,1.9,0.7,2.8c0,0.5,0.2,1.1,0.3,1.6c0.3,1.4,0.6,2.7,1,4.1
				c0,0.1,0,0.2,0.1,0.2l0,0c0,0.1,0,0.2,0.1,0.2c0,0,0,0.1,0,0.1c0,0,0,0.1,0.1,0.1c0,0,0,0.1,0,0.1c0,0,0.1,0.1,0.1,0.1
				c0,0,0,0.1,0,0.1c0,0.1,0,0.2,0.1,0.2l0,0c0,0.1,0,0.2,0.1,0.2c0,0,0,0,0,0c0,0.5,0.2,1.1,0.3,1.6c0.2,1,0.5,1.9,0.7,2.9
				c0.1,0.2,0.2,0.3,0.4,0.3c0.7-0.1,1.4-0.2,2.2-0.3c1.4-0.2,2.9-0.3,4.3-0.5c1-0.1,2-0.2,3-0.4c0.1,0,0.1,0,0.2,0c0,0,0.1,0,0.1,0
				c0.1,0,0.1,0,0.2,0l0,0c0,0,0.1,0,0.1,0c0.1,0,0.1,0,0.2,0c0.1,0,0.2,0,0.2,0c0,0,0.1,0,0.1,0c0.1,0,0.2,0,0.2,0
				c0.1,0,0.1,0,0.2,0c0.1,0,0.1,0,0.1,0c0.1,0,0.1,0,0.2,0c0.1,0,0.1,0,0.1,0c0.1,0,0.1,0,0.2,0c0.1,0,0.1,0,0.1,0
				c0.1,0,0.2,0,0.3,0c0.1,0,0.2,0.1,0.3,0c0.1,0,0.2,0.1,0.3,0l0,0c0.2,0.1,0.4-0.1,0.6,0.1c0.3,0,0.4-0.2,0.3-0.5
				c-0.1-1-0.1-2-0.2-2.9c-0.1-0.7,0-1.4-0.2-2.1c0-0.1,0-0.2,0-0.3c0,0,0-0.1,0-0.1c0-0.1,0-0.2,0-0.3c-0.1-1.5-0.2-2.9-0.3-4.4
				c0-0.2,0-0.3,0.1-0.5c0,0,0,0,0,0c0,0,0,0,0-0.1c0-0.1,0-0.1,0-0.2c0-0.3,0-0.6,0-1c0-0.1,0-0.2,0-0.3c0-0.1,0-0.2,0-0.2
				c0-0.1,0-0.3-0.2-0.3c0.2-0.1,0.1-0.3,0.1-0.5c0-0.5,0-0.9-0.1-1.4c-0.1-0.6-0.1-1.1-0.1-1.7c0-0.6-0.1-1.2-0.1-1.8
				c0-0.3,0.1-0.5,0.3-0.6c1-0.4,1.9-1,2.8-1.5c-0.4,0.9-0.3,1.9-0.5,2.8c0,0.1,0,0.1,0,0.1c0,0.2,0,0.3,0,0.5c0,0.5,0,0.9,0,1.4
				c0,0,0,0.1,0,0.1c0,0.1,0,0.2,0,0.3c0,0.4,0.1,0.9,0.2,1.3c0,0.2,0,0.4,0.2,0.4c0,0,0,0-0.1,0.1c0,0,0,0.1,0,0.2
				c0,0.1,0,0.2,0.1,0.3c0.2,0.8,0.5,1.5,0.9,2.2c0.5,1,1.2,1.9,1.9,2.8c1,1.1,2.2,2,3.5,2.7c0,0,0.1,0,0.1,0.1
				c0.1,0,0.2,0.1,0.4,0.2c1.3,0.6,2.6,1,4,1.2c0.6,0,1.2,0.1,1.8,0.1c1.9,0,3.8-0.2,5.6-0.8c0,0,0.1,0,0.1,0c0,0,0,0,0,0.1
				c0.1,0,0.2-0.1,0.2-0.1c0.1,0,0.2-0.1,0.3-0.2c0,0,0.1,0,0.1-0.1c0.2-0.1,0.4-0.1,0.6-0.2c0.3-0.1,0.6-0.3,0.9-0.4
				c0,0,0.1,0,0.1-0.1c0,0,0.1,0,0.1-0.1c0.2-0.2,0.5-0.3,0.8-0.4c0.1,0,0.1-0.1,0.2-0.1c0.1-0.1,0.3-0.2,0.4-0.1
				c0.1,0.1,0.1,0.3,0,0.4c-0.1,0.5-0.1,1.1-0.2,1.6c-0.1,1-0.2,2-0.3,3c0,0.4,0.1,0.6,0.5,0.7c4.1,0.2,8.1,0.4,12.2,0.5
				c0.1,0,0.2,0,0.2-0.1c0.2-0.1,0.2-0.3,0.2-0.5c0.5-2.5,1-4.9,1.4-7.4c0.2-0.1,0.2-0.4,0.2-0.5c0.1-0.7,0.3-1.3,0.4-2
				c0.1-0.6,0.1-0.6,0.6-0.2c1.6,1.2,3.2,2.4,4.8,3.6c0.2,0.1,0.3,0.3,0.5,0.3c0.1,0,0.1,0,0.2,0c0.5,0.4,1,0.8,1.5,1.1
				c0,0,0,0.1,0,0.1c0.1,0,0.1,0,0.2,0c0.1,0.2,0.3,0.3,0.5,0.4c1.8,1.4,3.6,2.7,5.4,4.1c0.1,0.1,0.3,0.2,0.4,0.4
				c0.2,0,0.3,0.2,0.4,0.3c1.3,1,2.7,2.1,4,3.1c0.3,0.2,0.7,0.4,0.9,0.7c0.1,0,0.2,0.1,0.2,0.1c1.4,1.1,2.8,2.1,4.2,3.2
				c0,0,0,0.1,0.1,0.1c0.2-0.1,0.1-0.3,0.2-0.5c0.6-2.9,1.1-5.8,1.7-8.8c0.1-0.5,0.2-1.1,0.3-1.6c0,0,0,0,0-0.1
				c0.1-0.2,0.1-0.4,0.1-0.6c0.1-0.3,0-0.7,0.3-0.9c0.3-0.1,0.5,0,0.8,0c3.4,0.2,6.7-0.3,9.9-1.3c0.2-0.1,0.3-0.1,0.5-0.2
				c0.1,0.1-0.1,0.2-0.1,0.3c0,0.1-0.1,0.1-0.1,0.2c0,0.1-0.1,0.3-0.1,0.4c0,0.1-0.1,0.1-0.1,0.2c0,0.1-0.1,0.3-0.1,0.4
				c0,0.1-0.1,0.1-0.1,0.2c0,0.2-0.1,0.3-0.2,0.5c0,0.1-0.1,0.1-0.1,0.2c0,0.1-0.1,0.3-0.2,0.4c0,0.1,0,0.2,0,0.2c0,0,0,0,0,0
				c0,0,0,0.1,0,0.1c-0.4,1-0.7,2-1.1,3c-0.1,0.3,0.1,0.4,0.3,0.5c0.3,0.1,0.5,0.2,0.8,0.3c1.2,0.4,2.3,0.8,3.5,1.3
				c0.9,0.3,1.9,0.7,2.8,1c0.5,0.2,1,0.3,1.4,0.6c0.2,0.1,0.5,0.1,0.7,0.2c0.5,0.2,1,0.4,1.5,0.5c0.8,0.3,1.5,0.6,2.3,0.9
				c0.3,0.2,0.5,0.1,0.6-0.2c0.5-1.4,1-2.8,1.5-4.2c0.4,1.4,0.9,2.9,1.4,4.3c0.1,0.4,0.1,0.8,0.4,1.1c0.3,0.5,0.3,1.1,0.6,1.7
				c0.4-0.3,0.6-0.8,1-1.1c0.8-0.7,1.4-1.6,1.9-2.3c0,0.4-0.3,0.9,0,1.5c0,0,0,0,0,0c0,0-0.1,0-0.1,0.1c-0.2,0.4-0.1,0.8-0.2,1.2
				c-0.1,0.9-0.1,1.8-0.2,2.7c0,0.1,0,0.1,0,0.2c0,0.2,0,0.4-0.1,0.7c-0.1,0.5,0,0.9,0.6,1.1c4.8,1.8,9.6,3.6,14.3,5.5
				c0.2,0.1,0.4,0.2,0.7,0.1c0,0,0.1,0,0.1-0.1c0-1,0.1-2,0.1-3c0-0.2,0.1-0.3,0-0.5c0,0,0,0,0,0c0-0.1,0-0.1,0-0.2
				c0-0.2,0.1-0.3,0.3-0.3c-0.1,0-0.1,0-0.2,0c0,0,0-0.1,0.1-0.1c0-0.2,0-0.4,0.1-0.6c0-0.5,0.1-0.5,0.5-0.4c0.5,0.1,1,0.2,1.4,0.3
				c0.2,0,0.4,0.1,0.6-0.1c0.8,0.2,1.6,0.1,2.5,0.1c0.9,0,1.8-0.2,2.8-0.4c0.2-0.1,0.4-0.2,0.6-0.1c0,0.3-0.1,0.5-0.2,0.8
				c-0.3,0.9-0.6,1.7-0.8,2.6c-0.3,0.7-0.5,1.5-0.7,2.2c0.1,0,0.2,0.1,0.3,0.1c0,0.1,0.1,0.1,0.2,0.1c0.7,0.2,1.4,0.5,2.1,0.7
				c1,0.3,2.1,0.7,3.1,1.1c0.8,0.3,1.7,0.6,2.5,0.9c0.6,0.2,1.2,0.5,1.9,0.6c0.1,0.1,0.2,0.1,0.3,0.2c0,0.1,0,0.1,0,0.2
				c0,0.1,0,0.2-0.1,0.3c0,0.1,0,0.2-0.1,0.3c0,0,0,0.1,0,0.1c0,0,0,0,0,0c0,0,0,0-0.1,0c-0.2,0.2-0.2,0.4-0.2,0.6
				c-0.1,0.6-0.1,1.2-0.3,1.8c-0.1,0.3-0.2,0.7-0.1,1c0.1,0.3,0.4,0.3,0.6,0.5c2.5,1.4,4.9,2.7,7.4,4c0.8,0.4,1.6,1,2.4,1.2
				c0.2,0,0.2-0.1,0.2-0.2c0.2-0.4,0.5-0.8,0.7-1.2c0.6-1.1,1.2-2.3,1.9-3.4c0.1,0,0.1-0.1,0.1-0.2c0,0,0,0,0-0.1c0.6-1,1.2-2,1.7-3
				c0.4-0.8,0.9-1.5,1.3-2.3c0.1,0,0.1-0.1,0.1-0.2c0,0,0,0,0-0.1c0.6-1,1.1-2,1.7-3c0.4-0.7,0.8-1.4,1.1-2.1c0.1,0,0.1-0.1,0.1-0.2
				c0,0,0,0,0-0.1c0.1,0,0.1-0.1,0.1-0.2l0,0c0,0,0,0,0-0.1c0.1,0,0.1-0.1,0.1-0.2c0,0,0,0,0-0.1c0.1-0.1,0.1-0.2,0.2-0.3
				c0.1-0.1,0.1-0.2,0.2-0.3c0.1-0.1,0.2-0.3,0.3-0.4c1-1.8,2-3.6,3.1-5.5c0.4-0.7,0.8-1.3,1.1-2.1c0.1-0.1,0.2-0.3,0.3-0.4
				c0.8-1.4,1.6-2.9,2.4-4.3c0.4-0.8,0.9-1.5,1.3-2.3c0.1,0,0.1-0.1,0.1-0.2c0,0,0-0.1,0-0.1c0.1-0.1,0.2-0.3,0.3-0.4
				c1-1.8,2-3.6,3-5.4c0.2-0.3,0.4-0.6,0.5-0.9c0.4-0.5,0.6-1,0.9-1.5C738.2,62.4,738.2,62.3,738.1,62.2z M732.2,70.6
				C732.2,70.6,732.2,70.6,732.2,70.6C732.2,70.6,732.2,70.6,732.2,70.6z M717.1,54.8C717.1,54.8,717.1,54.9,717.1,54.8
				C717.1,54.9,717.1,54.8,717.1,54.8C717.1,54.8,717.1,54.8,717.1,54.8z M687.4,63C687.4,63,687.4,63,687.4,63
				C687.4,63,687.4,63,687.4,63C687.4,63,687.4,63,687.4,63C687.4,63,687.5,63,687.4,63C687.5,63,687.4,63,687.4,63
				C687.4,63,687.4,63,687.4,63z M660.3,49.7C660.3,49.7,660.3,49.7,660.3,49.7C660.3,49.7,660.3,49.7,660.3,49.7
				c0,0.1,0,0.2-0.1,0.3c0,0.1-0.1,0.1-0.1,0.2c-0.1,0.1-0.1,0.2-0.2,0.3c-0.2,0.6-0.4,1.1-0.6,1.7c-0.3,0.7-0.5,1.5-0.8,2.2
				c-0.5-0.7-1-1.3-1.5-1.9c-0.2-0.2-0.1-0.4,0.1-0.5c0.5-0.4,1.1-0.8,1.6-1.2c0.4-0.3,0.9-0.5,1.1-1
				C660,49.9,660.1,49.8,660.3,49.7z M650.9,28.8c0.6-0.5,1.2-1,1.8-1.5c0.4-0.4,0.9-0.7,1.3-1.1c0.3-0.3,0.4-0.2,0.6,0.1
				c0.5,1.2,1.1,2.3,1.7,3.5c0.1,0.2,0.1,0.4,0.4,0.5l0,0c0,0,0,0.1,0,0.1c0,0,0,0,0,0c0,0,0,0.1,0,0.1c0,0,0,0.1,0,0.1
				c0,0,0,0.1,0,0.1c0,0,0,0,0,0c0,0,0,0.1,0.1,0.1c0,0,0,0.1,0.1,0.1c0,0,0,0.1,0.1,0.1c0,0,0,0.1,0,0.1c0,0,0,0.1,0,0.1
				c0,0,0,0.1,0,0.1c0,0.1,0,0.1,0,0.2c-0.7,0.3-1.4,0.4-2.2,0.7c-0.9,0.2-1.8,0.5-2.6,0.7c-0.2,0.1-0.4,0.1-0.5,0.3
				c0,0-0.1,0-0.1,0c0,0,0,0,0,0c0,0-0.1,0-0.1,0c0,0-0.1,0-0.1,0c0,0,0,0,0,0c0,0,0,0,0,0c0,0-0.1,0-0.1,0c0,0,0,0,0,0c0,0,0,0,0,0
				c0,0,0,0,0,0c0,0-0.1,0-0.1,0c0,0,0,0,0,0c0,0,0,0,0,0c0,0,0,0,0,0c0,0-0.1,0-0.1,0c0,0,0,0,0,0c0,0,0,0,0,0c0,0,0,0,0,0
				c0,0-0.1,0-0.1,0c0,0,0,0-0.1,0c0,0,0,0,0,0c0,0,0,0-0.1,0c0,0-0.1,0-0.1,0c-0.1,0-0.1,0-0.2,0c0,0-0.1,0-0.1,0
				c0,0-0.1,0-0.1,0.1c0,0,0,0,0,0c-0.2,0-0.5,0.1-0.7,0.2c0,0,0,0,0,0c0,0-0.1,0-0.1,0c-0.1,0-0.1,0-0.2,0c0,0-0.1,0-0.1,0
				c0,0-0.1,0-0.2,0c0,0-0.1,0-0.1,0c0,0-0.1,0-0.1,0c0,0-0.1,0-0.1,0c0,0-0.1,0-0.1,0c0,0-0.1,0-0.1,0c0,0-0.1,0-0.1,0
				c0,0-0.1,0-0.1,0c0,0-0.1,0-0.1,0c0,0-0.1,0-0.1,0c0,0-0.1,0-0.1,0c0,0-0.1,0-0.1,0c0,0-0.1,0-0.1,0c0,0-0.1,0-0.1,0
				c0,0-0.1,0-0.1,0c0,0-0.1,0-0.1,0c0,0-0.1,0-0.1,0c0,0-0.1,0-0.1,0c0,0-0.1,0-0.1,0c0,0-0.1,0-0.1,0c0,0-0.1,0-0.1,0
				c0,0-0.1,0-0.1,0c-0.1,0-0.1,0-0.2,0c0,0-0.1,0-0.1,0c-0.1,0-0.2,0-0.2,0c-0.1,0-0.1,0-0.2,0c-0.3,0.1-0.6,0.1-0.8-0.3
				c-0.2-0.6-0.3-0.7,0.2-1c0.4-0.3,0.8-0.6,1.2-1c0,0,0.1-0.1,0.1-0.1c0,0,0,0,0,0c0,0,0.1-0.1,0.1-0.1c0,0,0.1-0.1,0.1-0.1
				c0,0,0.1-0.1,0.1-0.1c0,0,0,0,0,0c0,0,0.1,0,0.1-0.1c0,0,0,0,0,0c0,0,0.1,0,0.1-0.1c0,0,0,0,0,0c0,0,0.1,0,0.1-0.1c0,0,0,0,0,0
				c0,0,0.1,0,0.1-0.1c0,0,0,0,0.1-0.1c0,0,0-0.1,0.1-0.1c0,0,0,0,0,0c0,0,0.1,0,0.1-0.1c0,0,0,0,0,0c0,0,0.1,0,0.1-0.1c0,0,0,0,0,0
				c0,0,0.1,0,0.1-0.1c0,0,0.1-0.1,0.1-0.1c0,0,0,0,0,0c0.1-0.1,0.1-0.1,0.2-0.2c0,0,0,0,0.1,0c0,0,0.1,0,0.1-0.1c0,0,0,0,0,0
				c0,0,0.1,0,0.1-0.1c0,0,0.1-0.1,0.1-0.1c0,0,0.1-0.1,0.1-0.1c0,0,0,0,0,0c0,0,0.1,0,0.1-0.1c0,0,0,0,0,0c0,0,0.1,0,0.1-0.1
				c0,0,0,0,0,0c0,0,0.1,0,0.1-0.1c0,0,0.1-0.1,0.1-0.1c0,0,0.1-0.1,0.1-0.1c0,0,0,0,0,0c0,0,0.1,0,0.1-0.1c0,0,0,0,0,0
				c0,0,0.1,0,0.1-0.1c0,0,0,0,0,0c0,0,0.1,0,0.1-0.1c0,0,0.1,0,0.1-0.1c0,0,0-0.1,0.1-0.1c0,0,0,0,0,0c0,0,0,0,0,0c0,0,0,0,0,0
				c0,0,0,0,0,0c0,0,0,0,0,0c0,0,0.1,0,0.1-0.1c0,0,0,0,0,0c0,0,0.1,0,0.1-0.1c0,0,0,0,0,0c0,0,0.1,0,0.1-0.1c0,0,0.1,0,0.1-0.1
				c0,0,0-0.1,0.1-0.1c0,0,0,0,0,0C650.6,29.1,650.8,28.9,650.9,28.8z M626.5,51.6c0-0.1-0.1-0.2-0.2-0.2c-0.2-0.1-0.4-0.3-0.6-0.4
				c-0.5-0.3-0.5-0.3,0-0.7c0.5-0.3,1-0.7,1.5-1c0.5-0.3,0.9-0.6,1.5-1c-0.3,1-0.4,2-0.5,2.9c0,0.3-0.1,0.7,0.1,1
				c-0.2,0.2-0.3,0.2-0.6,0C627.3,52,627,51.7,626.5,51.6z M551.3,26.1c1.8-0.7,3.7-1.2,5.6-1.7c1.5-0.4,3-0.6,4.5-0.9
				c0.1,0,0.2-0.1,0.3-0.1c0,0,0.1,0,0.1,0c0.1,0,0.2,0,0.2,0c0,0,0.1,0,0.1,0c0.1,0,0.2,0,0.2,0c0,0,0.1,0,0.1,0c0.1,0,0.2,0,0.2,0
				c0,0,0.1,0,0.1,0c0.1,0,0.2,0,0.2,0c0,0,0.1,0,0.1,0c0.1,0,0.2,0,0.2,0c0,0,0.1,0,0.1,0c0.1,0,0.2,0,0.3,0c0,0,0.1,0,0.1,0
				c0.1,0,0.2,0,0.3,0c0,0,0,0,0,0c0,0,0,0,0.1,0c0.3,0.1,0.5,0.1,0.8,0.1c2.1-0.1,4.1,0,6.2,0.2c2.8,0.4,5.6,1.2,8.2,2.4
				c0.2,0.1,0.3,0.1,0.5,0.1c0,0,0,0,0,0c0,0,0,0,0,0c0,0,0.1,0,0.1,0.1c0,0,0,0,0,0c0,0,0.1,0,0.1,0.1c0,0,0.1,0,0.1,0.1
				c0,0,0.1,0.1,0.1,0.1c0,0,0.1,0,0.1,0.1c0,0,0.1,0.1,0.1,0.1c0,0,0.1,0,0.1,0.1c0,0,0.1,0.1,0.1,0.1c0,0,0.1,0,0.1,0.1
				c0,0,0.1,0,0.1,0.1c0,0,0.1,0,0.1,0.1c0,0,0.1,0.1,0.1,0.1c0,0,0.1,0,0.1,0.1c0,0,0.1,0,0.1,0.1c0,0,0.1,0,0.1,0.1
				c0,0,0.1,0,0.1,0.1c0,0,0.1,0,0.1,0.1c0,0,0,0,0,0c0,0,0,0,0,0c0,0,0,0,0,0c0,0,0,0,0,0c0,0,0,0.1,0.1,0.1c0,0,0,0,0.1,0.1
				c0,0,0.1,0.1,0.1,0.1c0,0,0,0,0.1,0.1c0,0,0,0,0.1,0.1c0,0,0,0,0,0c0,0,0,0.1,0.1,0.1c0,0,0,0,0.1,0.1c0,0,0.1,0.1,0.1,0.1
				c0,0,0,0.1,0.1,0.1c0,0.1,0.1,0.1,0.1,0.2c0.1,0.1,0.1,0.2,0.2,0.3c1.8,1.7,3,3.7,3.5,6.1c0,0.1,0,0.2,0.2,0.3c0,0,0,0,0,0
				c0,0.1,0,0.3,0,0.4c0,0.2,0,0.3,0,0.5c0.1,1.6-0.2,3-0.7,4.5c-0.4,1.1-1,2.1-1.6,3.2c0,0.1-0.1,0.1-0.1,0.2c0,0-0.1,0.1-0.1,0.1
				c0,0.1-0.1,0.1-0.1,0.2c0,0,0,0,0,0c-0.1,0.1-0.2,0.2-0.2,0.2c-0.8,1-1.6,1.9-2.6,2.8c-0.5,0.5-1,1-1.7,1.3
				c-0.4,0.4-0.9,0.7-1.3,1c-0.8,0.5-1.6,1-2.4,1.5c0,0-0.1,0-0.1,0c-1.1,0.4-2,0.9-3,1.3c-0.1,0-0.2,0.1-0.2,0.3c0,0.1,0,0.1,0,0.2
				c0.1,2.3,0.3,4.6,0.4,6.9c0,0.1,0,0.3,0.1,0.4c0,0,0,0,0,0c0,0.1,0,0.2,0,0.3c0.1,2.1,0.3,4.2,0.4,6.3c0,0.1,0,0.3,0.2,0.4
				c0,0,0,0,0,0c0,0-0.1,0-0.1,0.1c0,0.1,0,0.3,0,0.4c0,0.8,0.1,1.6,0.1,2.4c0,0.4-0.1,0.5-0.5,0.6c-0.5,0-0.9,0.1-1.4,0.1
				c-1.5,0.2-3.1,0.4-4.6,0.6c-0.2,0-0.5,0-0.6,0.2c-0.2-0.1-0.4-0.2-0.5-0.3c0.1-0.2,0-0.5,0-0.7c-0.4-1.7-0.8-3.4-1.2-5.1
				c0-0.2,0-0.4-0.3-0.4c0,0-0.1,0-0.1-0.1c0,0,0.1,0,0.1,0c0.1-0.3,0-0.5,0-0.8c-0.5-2-0.9-4-1.4-6c-0.2-0.8-0.3-1.6-0.6-2.3
				c0,0,0,0,0,0c0-0.1,0-0.3-0.1-0.4c-0.4-1.8-0.9-3.7-1.3-5.5c-0.2-0.8-0.3-1.7-0.6-2.5c0-0.2,0-0.3-0.1-0.5
				c-0.4-1.9-0.9-3.8-1.3-5.7c-0.1-0.5-0.3-1.1-0.4-1.6c-0.2-1.2-0.6-2.4-0.8-3.6c-0.1-0.3-0.1-0.3-0.4-0.2
				c-1.1,0.3-2.1,0.6-3.2,0.9c-0.5,0.1-0.4,0.2-0.6-0.3c-0.3-0.9-0.7-1.9-1-2.8c-0.3-0.7-0.5-1.4-0.8-2.1c0-0.1,0-0.2-0.1-0.2
				c0-0.1,0-0.2-0.1-0.2l0,0c0,0,0-0.1-0.1-0.1c0,0,0,0,0,0c0,0,0,0.1,0,0.1c0-0.1,0-0.1,0-0.1c0,0,0,0,0,0c0.1-0.2,0-0.4-0.1-0.6
				c-0.3-0.9-0.7-1.9-1-2.8c-0.1-0.2-0.2-0.4-0.2-0.6c0,0,0-0.1,0-0.1c0,0,0,0,0.1-0.1c0,0,0.1,0,0.1-0.1c0,0,0,0,0,0
				C550.8,26.3,551.1,26.2,551.3,26.1z M595.8,65.9c-3,0.7-5.9,0.4-8.6-1.1c-1.3-0.7-2.3-1.8-3.2-3c0,0-0.1-0.1-0.1-0.1
				c0,0-0.1-0.1-0.1-0.1c-0.1-0.1-0.1-0.1-0.1-0.2c0,0,0-0.1,0-0.1c0,0,0-0.1-0.1-0.1c0,0,0,0,0,0c0,0,0-0.1-0.1-0.1
				c0,0,0-0.1,0-0.1c0-0.1,0-0.1-0.1-0.2c0,0,0-0.1-0.1-0.1c0,0,0,0,0,0c0-0.1-0.1-0.2-0.1-0.3c-0.7-1.7-0.9-3.4-0.6-5.2
				c0.1-0.8,0.4-1.7,0.6-2.5c0.2-0.5,0.4-0.9,0.7-1.4c1-1.9,2.4-3.5,4.2-4.8c0.1-0.2,0.3-0.2,0.4-0.3c0.4-0.3,0.9-0.6,1.3-0.9
				c0,0,0,0,0,0c0,0,0,0,0,0c0.3,0,0.5-0.2,0.8-0.3c2.9-1.3,5.9-1.8,9.1-0.9c2.1,0.6,3.8,1.8,5.1,3.5c0.1,0.2,0.2,0.3,0.4,0.4
				c0,0,0,0,0,0c0.1,0.2,0.2,0.3,0.3,0.4c0,0,0,0.1,0.1,0.1c0,0.1,0.1,0.2,0.1,0.2c0.6,1.2,0.9,2.6,1,4c0,0.9-0.1,1.8-0.2,2.7
				c0,0,0,0,0,0c-0.2,0.3-0.2,0.7-0.3,1c-0.1,0.1-0.1,0.2-0.2,0.4c-0.8,2.4-2.3,4.4-4.2,6.1c-0.3,0.2-0.6,0.5-0.9,0.7
				c0,0-0.1,0-0.1,0c-0.3,0.1-0.5,0.3-0.7,0.4C598.8,65,597.3,65.6,595.8,65.9z M628.6,68.1C628.6,68.1,628.6,68.1,628.6,68.1
				C628.6,68.1,628.6,68.1,628.6,68.1z M636.6,73.1c-0.2-0.1-0.3-0.2-0.5-0.3c-2.2-1.7-4.4-3.4-6.6-5c-0.1-0.1-0.2-0.2-0.4-0.3
				c0,0,0,0,0,0c-0.1-0.3-0.3-0.4-0.6-0.6c-4.5-3.4-8.9-6.9-13.4-10.3c-0.1-0.1-0.3-0.2-0.5-0.3c-0.2-0.1-0.4-0.1-0.5,0.1
				c-0.1,0.3-0.2,0.6-0.2,0.8c-0.7,3.8-1.5,7.7-2.2,11.5c-0.1,0.3-0.2,0.7-0.3,1c0,0,0,0,0,0c-0.4-0.1-0.8-0.1-1.3-0.1
				c-1.4-0.1-2.8-0.2-4.2-0.2c-1,0-1-0.1-0.9-1.1c0.1-1.1,0.3-2.2,0.3-3.3c0-0.1,0-0.3-0.1-0.4c0-0.1,0-0.3,0-0.4
				c0-0.3,0.1-0.6,0.3-0.8c0.7-0.9,1.4-1.8,1.9-2.8c0.6-1.1,1.1-2.2,1.4-3.5c0.1-0.1,0.1-0.3,0.2-0.5c0.4-1.7,0.5-3.5,0.2-5.2
				c-0.2-1-0.4-2-0.9-2.9c0,0,0,0-0.1,0c0,0,0.1,0,0.1,0c0-0.7-0.4-1.1-0.7-1.6c-0.2-0.4-0.3-0.8-0.3-1.2c0.2-1,0.2-2,0.3-3
				c0.1-0.6,0.2-1.3,0.1-1.9c-0.1-0.3,0.1-0.6,0.1-0.9c0-0.1,0-0.2,0-0.3c0-0.3,0-0.5,0.1-0.8c0-0.1,0-0.3,0-0.4
				c0-0.1,0-0.1-0.1-0.2c0.2-1.1,0.3-2.3,0.4-3.4c-1.1,0.1-2.1,0.1-3.2,0.2c0.1-0.6,0.1-1.2,0.3-1.8c0.1-0.1,0.1-0.2,0.2-0.3
				c0-0.6,0.4-0.8,0.9-0.8c0.1,0,0.2-0.1,0.3-0.1c0,0,0.1,0,0.1,0c0.1,0,0.2,0,0.2,0c0,0,0.1,0,0.1,0c0.1,0,0.2,0,0.2,0
				c0,0,0.1,0,0.1,0c0.1,0,0.2,0,0.2,0c0,0,0.1,0,0.1,0c0.1,0,0.2,0,0.2,0c0,0,0.1,0,0.1,0c0.1,0,0.2,0,0.2,0c0,0,0.1,0,0.1,0
				c0.1,0,0.2,0,0.2,0c0,0,0.1,0,0.1,0c0.1,0,0.2,0,0.2,0c0,0,0.1,0,0.1,0c0.1,0,0.2,0,0.2,0c0,0,0.1,0,0.1,0c0.1,0,0.2,0,0.2,0
				c0,0,0.1,0,0.1,0c0.1,0,0.2,0,0.2,0c0,0,0,0,0.1,0c0,0,0,0,0,0c0.2,0.1,0.5,0.1,0.7,0c1.7-0.2,3.4-0.3,5.1-0.5
				c0.5-0.1,0.5,0,0.5,0.5c0,0.6-0.1,1.1-0.2,1.7c-0.1,0.3,0,0.3,0.1,0.4c0,0,0,0.1,0,0.1c-0.2,0.1-0.2,0.3-0.2,0.5
				c-0.1,0.5-0.1,1.1-0.2,1.6c-0.3,1.9-0.5,3.8-0.8,5.7c0,0.2-0.1,0.4,0.1,0.5c0.1-0.1,0.2-0.2,0.3-0.3c2.3-2.2,4.6-4.4,6.9-6.6
				c0.1-0.1,0.3-0.3,0.4-0.4c0.1-0.1,0.2-0.1,0.3-0.3c0.1,0,0.1,0,0.1-0.1c0,0-0.1,0.1-0.1,0.1c0,0,0,0,0,0c0,0,0.1-0.1,0.1-0.1l0,0
				c0.1,0,0.1-0.1,0.2-0.2c0.1,0,0.1,0,0.1-0.1c-0.1,0-0.1,0-0.1,0.1c0,0,0,0,0,0l0,0c0,0,0,0,0,0c0,0,0,0,0,0
				c0-0.1,0.1-0.1,0.1-0.1c0,0,0.1-0.1,0.1-0.1l0,0c0,0,0,0,0-0.1c0.1,0,0.1-0.1,0.1-0.1c0,0,0.1-0.1,0.1-0.1l0,0
				c0.1,0,0.1-0.1,0.2-0.1c0.4-0.1,0.6-0.4,0.9-0.7c0.3-0.3,0.4-0.2,0.7,0c0.1,0.2,0.2,0.4,0.4,0.4c0,0,0,0,0,0c0,0,0,0,0,0.1
				c0,0,0,0.1,0.1,0.1c0,0,0,0,0,0c0,0,0,0.1,0.1,0.1c0,0,0,0,0,0c0,0,0,0.1,0.1,0.1c0,0,0,0,0,0c0,0,0,0.1,0.1,0.1c0,0,0,0,0,0
				c0,0,0,0.1,0.1,0.1c0,0,0,0,0,0c0,0,0,0.1,0.1,0.1c0,0,0,0,0,0c0,0,0,0.1,0.1,0.1c0,0,0,0,0,0c0,0,0,0.1,0.1,0.1c0,0,0,0,0,0
				c0,0,0,0.1,0.1,0.1c0,0,0,0,0,0c0,0,0,0.1,0.1,0.1c0,0,0,0,0,0c0,0,0,0.1,0.1,0.1c0,0,0.1,0.1,0.1,0.1c0.1,0.1,0.2,0.2,0.2,0.3
				c0.4,0.8,0.9,1.5,1.4,2.2c0.9,1.2,1.7,2.4,2.6,3.6c0.2,0.2,0.2,0.4-0.1,0.5c-0.1,0.1-0.3,0.2-0.3,0.4c0,0,0,0,0,0
				c-0.5,0-0.8,0.3-1,0.7c-0.1,0.1-0.1,0.1-0.2,0.2c-3.7,2.6-7.4,5.3-11,7.9c0,0.1,0,0.1,0.1,0.1c0,0,0,0.1,0.1,0.1
				c0.1,0.1,0.2,0.2,0.4,0.2c0,0,0,0.1,0.1,0.1c0.1,0,0.1,0.1,0.2,0.1c0,0,0.1,0.1,0.1,0.1c0,0,0.1,0,0.1,0c0,0,0,0.1,0.1,0.1
				c0.1,0.1,0.2,0.1,0.3,0.2c0,0,0.1,0,0.1,0c0,0,0,0.1,0.1,0.1c0,0-0.1,0-0.1-0.1l0,0c0,0,0,0.1,0.1,0.1c0.1,0.1,0.2,0.2,0.4,0.2
				c0,0.1,0.1,0.1,0.2,0.1l0,0l0,0c0,0.1,0.1,0.1,0.2,0.1l0,0l0,0c0,0.1,0.1,0.1,0.1,0.1l0,0l0,0c0,0.1,0,0.1,0.1,0.1
				c0.2,0.1,0.3,0.2,0.5,0.3c1.9,1.2,3.8,2.4,5.7,3.6c0.3,0.2,0.5,0.4,0.6,0.7c0.3,0.8,0.6,1.6,1.1,2.4c0.2,0.4,0.4,0.8,0.7,1.1
				c0,0,0,0,0,0.1c0,0,0,0.1,0.1,0.1c0,0,0,0,0,0.1c0,0,0,0.1,0.1,0.1c0,0,0,0,0,0.1c0,0,0,0.1,0.1,0.1c0.9,1.3,2,2.3,3.2,3.1
				c1.4,1,3,1.8,4.6,2.3c0.3,0.1,0.5,0.2,0.4,0.6c-0.5,2.2-0.8,4.5-1.4,6.8l0,0C637.7,73.7,637.2,73.4,636.6,73.1z M650.7,63.5
				c-1.3,0.3-2.6,0.5-3.9,0.5c-3.5,0.3-6.9-0.3-9.9-2.2c-0.5-0.3-1-0.8-1.5-1.1c0,0-0.1,0-0.1,0c-0.1-0.1-0.2-0.2-0.3-0.3
				c-1.8-1.7-2.9-3.8-3.2-6.3c-0.1-0.4-0.1-0.9-0.1-1.3c0-0.3,0-0.6,0.1-1c0.1-2.6,1-4.9,2.6-6.9c0.5-0.6,1.1-1.2,1.7-1.7
				c0.3,0,0.5-0.2,0.7-0.3c0.5-0.3,0.9-0.7,1.4-0.9c3.6-1.9,7.5-2.3,11.4-1.3c2.7,0.7,4.9,2,6.7,4.2c0.2,0.2,0.3,0.4,0.6,0.4
				c0,0,0,0,0,0c0,0,0,0.1,0,0.1c0,0,0,0,0,0c0,0,0,0.1,0.1,0.1c0,0,0,0,0,0c0,0,0,0.1,0.1,0.1c0,0,0,0,0,0c0,0,0,0.1,0.1,0.1
				c0,0,0,0,0,0c0,0,0,0.1,0.1,0.1c0,0,0,0,0,0c0,0,0,0.1,0.1,0.1c0,0,0,0,0,0c0,0,0,0.1,0.1,0.1c0,0,0,0,0,0c0,0,0,0.1,0.1,0.1
				c0,0,0,0,0,0c0,0,0,0.1,0.1,0.1c0,0,0,0,0,0c0,0,0,0.1,0.1,0.1c0,0,0,0,0,0c0,0,0,0.1,0,0.1c0,0,0,0.1,0,0.1c0,0.1,0,0.1-0.1,0.1
				c-0.5,0.5-1.2,0.8-1.7,1.4c-0.3,0.2-0.6,0.5-0.9,0.7c0,0,0,0,0,0s0,0,0,0c0,0,0,0,0,0c0,0,0,0,0,0c0,0,0,0,0,0l0,0l0,0
				c0,0,0,0,0,0c-0.3,0.1-0.5,0.3-0.7,0.5c-0.1,0.1-0.2,0.1-0.3,0.2c-2.7,1.9-5.4,3.9-8.1,5.8c-0.4,0.3-0.8,0.6-1.2,0.9
				c0.1,0.3,0.4,0.3,0.6,0.3c0.7,0.1,1.4,0.1,2.1,0.1c1.2-0.1,2.4-0.2,3.4-0.9l0,0c0.1,0,0.1,0,0.1-0.1c0.2-0.1,0.4-0.2,0.6-0.3
				c0.6-0.1,1-0.5,1.5-0.9c0.2-0.2,0.4-0.2,0.6,0.1c0.3,0.6,0.8,1,1.1,1.5c0.2,0.3,0.4,0.7,0.9,0.9c0,0,0,0,0,0.1c0,0,0,0,0,0.1
				c0,0,0,0.1,0.1,0.1c0,0.1,0.1,0.1,0.1,0.2c0,0.1,0.1,0.1,0.1,0.2c0.5,0.7,1,1.4,1.6,2.1c0.4,0.5,0.4,0.4-0.1,0.8
				c-0.4,0.3-1,0.5-1.4,0.9c-1.3,0.8-2.7,1.3-4.1,1.7c-0.2,0.1-0.4,0.1-0.6,0.2c-0.1,0-0.1,0-0.2-0.1
				C651,63.4,650.9,63.4,650.7,63.5z M684.7,84.4c-0.1,0-0.1,0-0.2,0c-0.1,0-0.3-0.1-0.4-0.2c-0.4-0.3-1-0.3-1.4-0.6
				c-1.9-0.7-3.8-1.4-5.7-2c-0.7-0.2-0.7-0.2-0.7-1c0-0.3,0-0.6,0-0.9c0-0.1-0.1-0.1-0.1-0.2c0-0.1,0-0.2,0-0.3c0.1-2,0.2-4,0.2-6
				c0-0.8,0.1-1.7,0.1-2.5c0.1-0.6,0.1-1.2,0.1-1.9c0.1-1.1,0.1-2.3,0.2-3.4c0-0.1,0-0.2-0.2-0.1l0,0c-0.1,0.1-0.2,0.2-0.3,0.4
				c-0.9,1.3-1.7,2.7-2.5,4c-0.1,0.1-0.2,0.3-0.1,0.4c-0.4,0.3-0.6,0.8-0.8,1.1c-0.3,0.5-0.7,1-1,1.6c-0.2-0.4-0.2-0.7-0.4-1
				c0-0.2-0.1-0.3-0.1-0.5c-0.2-0.6-0.3-1.2-0.5-1.7c0-0.1,0-0.2,0-0.2c-0.6-2.5-1.3-5-1.9-7.5c0-0.1-0.1-0.3-0.1-0.4
				c-0.2,0.2-0.3,0.4-0.4,0.6c-0.8,2.1-1.5,4.2-2.3,6.4c-0.1,0.2-0.1,0.3-0.1,0.5c0,0,0,0,0,0c-0.2,0.1-0.2,0.4-0.3,0.6
				c-0.4,1.1-0.8,2.3-1.2,3.4c-0.1,0.2-0.2,0.5-0.5,0.4c-0.3-0.2-0.7-0.2-1.1-0.3c-1-0.3-2-0.7-3-1.1c-1.1-0.4-2.2-0.8-3.3-1.2
				c-0.2-0.1-0.3-0.1-0.2-0.3c0,0,0,0,0,0c0,0,0,0,0,0c0.3-0.1,0.3-0.3,0.3-0.5c0.3-0.8,0.6-1.7,0.9-2.5c0.3-0.7,0.6-1.4,0.8-2.2
				c0-0.1,0-0.1,0-0.2c0.1-0.2,0.2-0.5,0.3-0.7c0.1-0.3,0.2-0.5,0.5-0.6c1.3-0.9,2.5-1.7,3.8-2.6c0.2-0.1,0.3-0.2,0.1-0.4
				c-0.7-0.9-1.3-1.7-2-2.6c0-0.1,0-0.2,0.1-0.2c0.5-1.2,0.9-2.4,1.4-3.7c0.3-0.8,0.6-1.5,0.8-2.3c0.2-0.2,0.2-0.4,0.2-0.6l0,0
				c0.2-0.4,0.3-0.8,0.5-1.2c0.3-0.8,0.6-1.5,0.8-2.3c0.1-0.1,0.1-0.3,0.2-0.4c0-0.1,0-0.1,0.1-0.2c0.1-0.1,0.1-0.3,0.2-0.4
				c0-0.1,0-0.1,0.1-0.2c0-0.1,0.1-0.1,0.1-0.2c0.4-1,0.7-1.9,1.1-2.9c0.2-0.2,0.3-0.5,0.4-0.8c0.2-0.6,0.3-0.7,0.9-0.5
				c2.4,0.5,4.9,0.9,7.3,1.4c0.2,0,0.2,0.2,0.2,0.4c-0.1,0.6,0,1.2-0.1,1.9c0,0.1,0,0.3,0.1,0.4c0,0,0,0,0,0c0,0,0,0,0,0
				c-0.1,0.5,0,0.9,0,1.4c0,2.5,0,4.9-0.1,7.4c0,0.1-0.1,0.2,0,0.3c0.1-0.2,0.2-0.3,0.2-0.5c0.1-0.2,0.1-0.3,0.2-0.5
				c0.7-1.8,1.4-3.5,2-5.3c0.3-0.7,0.6-1.3,0.7-2c0.3-0.5,0.5-1.1,0.6-1.6c0.1-0.1,0.2-0.3,0.2-0.5c0,0,0,0,0-0.1
				c0.1-0.1,0.1-0.3,0.2-0.4c0-0.1,0-0.1,0.1-0.2c0,0,0.1-0.1,0.1-0.1c0-0.1,0-0.2,0-0.3c0,0,0-0.1,0-0.1c0,0,0-0.1,0-0.1
				c0,0,0.1,0,0.1,0.1c0.1-0.1,0.1-0.2,0.2-0.3c0.3-0.7,0.3-0.7,1.1-0.5c1.4,0.3,2.7,0.5,4.1,0.8c0.9,0.2,0.9,0.2,0.8,0.9
				c0,0.1,0,0.2,0.1,0.3c0.1,0,0.1,0,0.1,0c0,0,0,0,0,0.1c-0.2,0.2-0.2,0.4-0.2,0.6c-0.1,2.1-0.2,4.2-0.2,6.3c0,0.1,0,0.3,0,0.4
				c0,0,0,0,0,0c0,0.2-0.1,0.4-0.1,0.7c-0.1,2.2-0.2,4.5-0.2,6.7c0,0.4-0.1,0.8-0.5,1.1c-0.3,0.2-0.6,0.4-0.8,0.7
				c0,0.1-0.1,0.1-0.1,0.2c0,0,0,0-0.1,0.1c0,0-0.1,0.1-0.1,0.1c0,0,0,0-0.1,0.1c0,0-0.1,0.1-0.1,0.1c0,0,0,0,0,0.1
				c-0.1,0.1-0.1,0.1-0.2,0.2c-1,1-1.8,2.2-2.5,3.4c-0.7,1.3-1.3,2.7-1.5,4.1c-0.4,1.9-0.3,3.9,0.2,5.8c0.3,1,0.6,2,1.3,2.9
				c0,0,0,0,0,0c0,0,0.1,0.1,0.1,0.1c0.7,1.3,1.7,2.4,2.9,3.3c0.4,0.3,0.8,0.6,0.6,1.2c0,0,0,0,0,0.1c0,0,0,0,0,0.1
				c0,0.2,0,0.4-0.1,0.5c0,0.1,0,0.1,0,0.2C684.7,84.2,684.8,84.3,684.7,84.4z M692.6,81.5c-2.6,0-4.9-0.7-6.9-2.4
				c-0.1-0.1-0.2-0.2-0.4-0.2c0,0-0.1,0-0.1,0c0,0-0.1-0.1-0.1-0.1c-1.4-1.4-2.2-3.1-2.5-5.1c-0.1-0.7-0.1-1.5-0.1-2.2
				c0-0.1,0.1-0.2,0.1-0.3c0.3-2.2,1.2-4.1,2.6-5.9c0.6-0.8,1.4-1.5,2.1-2.1c0.1,0,0.1-0.1,0.2-0.1c0,0,0,0,0,0c0.1,0,0.1,0,0.1-0.1
				c0,0-0.1,0-0.1,0c0,0,0.1,0,0.1,0c0.1,0,0.2-0.1,0.2-0.1c0,0,0,0,0,0c0.1,0,0.1,0,0.2,0c0.6-0.3,1.1-0.7,1.6-1
				c3.2-1.7,6.5-2.2,10-1.1c1.9,0.6,3.4,1.7,4.5,3.4c0.4,0.6,0.6,1.2,1.1,1.7c0,0,0,0,0.1,0c0,0,0,0,0,0c0.9,2.4,0.8,4.8-0.2,7.2
				c-0.3,0.8-0.7,1.5-1.1,2.2c-0.1,0.1-0.1,0.1-0.2,0.2c-0.8,1.2-1.8,2.2-2.9,3.1c-0.4,0.3-0.8,0.7-1.3,0.9c-0.6,0.4-1.2,0.7-1.9,1
				c-0.6,0.3-1.2,0.4-1.8,0.7c0,0,0,0,0,0c0,0,0,0,0,0c0,0,0,0,0,0c0,0,0,0,0,0c0,0,0,0,0,0c0,0,0,0,0,0c-0.8,0.2-1.5,0.3-2.3,0.4
				c-0.1,0-0.2,0-0.4-0.1C693,81.5,692.8,81.5,692.6,81.5z M696.6,87.6c0,0,0.1,0,0.1,0C696.6,87.6,696.6,87.6,696.6,87.6z
				 M714.4,97.8c-0.2,0.2-0.2,0.7-0.6,0.7c-0.3,0-0.6-0.3-0.9-0.4c-0.5-0.3-1.1-0.6-1.7-0.9c-1-0.5-2-1-2.9-1.5
				c0-0.1-0.1-0.1-0.1-0.2c0-0.1,0-0.2,0-0.3c0.1-0.8,0.2-1.6,0.4-2.4c0-0.2,0.1-0.4,0.1-0.5c0.2-1.5,0.5-2.9,0.7-4.4
				c0.2-1,0.4-2.1,0.5-3.1c0-0.1,0.1-0.2,0.1-0.3c0-0.1,0-0.1,0-0.2c0-0.2,0.1-0.4,0.1-0.5c0.5-3.2,1.1-6.3,1.6-9.5
				c-0.1-0.2,0.2-0.4-0.1-0.6c-0.1,0.2-0.1,0.4-0.2,0.6c-1,2.7-2.1,5.4-3.1,8.1c-0.3,0.7-0.6,1.4-0.8,2.1c0,0.1-0.1,0.1-0.1,0.2
				c-0.4,0.9-0.7,1.8-1,2.7c-0.3,0.8-0.6,1.5-0.9,2.3c-0.1,0-0.1,0.1-0.1,0.1c-0.2,0.2-0.3,0.1-0.5,0c-0.2-0.2-0.5-0.3-0.8-0.2
				c-0.2,0-0.4-0.1-0.6-0.2c-0.8-0.3-1.6-0.6-2.4-0.8c-0.1-0.1-0.2-0.1-0.3-0.1c-0.6-0.2-1.2-0.4-1.8-0.7c-0.2-0.1-0.2-0.2-0.2-0.3
				c0.1-0.4,0.2-0.8,0.4-1.2c0.3-1,0.6-2,0.8-3c0,0,0,0,0,0c0.1-0.4,0.4-0.6,0.8-0.9c1.9-1.1,3.4-2.6,4.7-4.3c0.4-0.5,0.7-0.9,1-1.5
				c0.1,0,0.1-0.1,0.1-0.2c0,0,0,0,0-0.1c0.1,0,0.1-0.1,0.1-0.2c1-1.9,1.6-3.8,1.7-6c0.1-1.2,0-2.3-0.3-3.5c0,0,0,0,0,0
				c0.2-0.3,0-0.6,0-0.8c-0.4-1.1-0.8-2.2-1.5-3.2c-0.2-0.3-0.3-0.6-0.1-1c0.2-0.4,0.2-0.9,0.3-1.3c0-0.2,0-0.3,0-0.4
				c0-0.2,0.1-0.4,0.1-0.6c0,0,0,0,0,0l0,0c0,0,0,0,0,0c0,0,0,0,0,0c0,0,0,0,0,0c0,0,0,0,0,0c0,0,0,0,0,0c0,0,0,0,0,0c0,0,0,0,0,0
				l0,0c0.2-0.3,0.2-0.7,0.3-1.1c0.2-0.5,0.3-1.1,0.5-1.7c0.1-0.2,0.1-0.3-0.2-0.4c-0.7-0.3-1.4-0.7-2.1-1c0-0.2,0-0.3,0.1-0.5
				c0.1-0.1,0.1-0.3,0.1-0.4c0,0,0,0,0,0c0.2,0,0.2-0.2,0.3-0.3c0.1-0.3,0.1-0.7,0.2-1c0.1-0.7,0.2-0.7,0.9-0.5
				c2.2,0.9,4.5,1.8,6.7,2.8c0.2,0.1,0.5,0.3,0.7,0.2c0,0,0,0,0,0c0,0,0.1,0.1,0.1,0.1c0.1,0.1,0.3,0.1,0.4,0.2c0,0,0.1,0,0.1,0.1
				c0.1,0,0.3,0.1,0.4,0.1c0,0,0.1,0,0.1,0.1c0.1,0,0.2,0.1,0.4,0.1c0,0,0.1,0,0.1,0.1c0.1,0,0.2,0.1,0.4,0.1c0,0,0.1,0,0.1,0.1
				c0.1,0,0.2,0.1,0.4,0.1c0,0,0.1,0,0.1,0.1c0.1,0,0.2,0.1,0.3,0.1c0,0,0,0.1,0.1,0.1c0,0.1,0,0.2,0,0.4c0,0,0,0.1,0,0.1
				c0,0.1,0,0.2,0,0.3c0,0.1,0,0.1,0,0.2c0,0.1,0,0.2,0,0.3c0,0.1,0,0.1,0,0.2c0,0.1,0,0.2,0,0.3c0,0.1,0,0.1,0,0.2
				c0,0.1,0,0.2,0,0.3c0,0,0,0.1,0,0.1c0,0.1,0,0.2,0,0.3c0,0.2-0.1,0.4,0,0.6c0,0.1,0,0.2,0,0.3c0,0.1,0,0.1,0,0.2
				c0,0.1,0,0.2,0,0.3c0,0.1,0,0.1,0,0.2c0,0.1,0,0.2,0,0.3c0,0.1,0,0.1,0.1,0.2c0,0.1,0,0.1,0,0.2c0.1,4.1,0.1,8.2,0.2,12.4
				c0,0.5-0.1,1,0.1,1.5c0.1-0.1,0.1-0.3,0.2-0.4c1.5-3.4,3.1-6.8,4.6-10.2c0.3-0.7,0.7-1.4,1-2.2c0,0,0,0,0,0
				c0.4-0.2,0.4-0.7,0.6-1c0-0.1,0-0.1,0.1-0.2c0-0.1,0.1-0.1,0.1-0.2c0-0.1,0.1-0.2,0.1-0.3c0-0.1,0.1-0.1,0.1-0.2
				c0-0.1,0.1-0.1,0.1-0.2c0.3-0.7,0.3-0.7,1-0.4c1.4,0.6,2.7,1.2,4.1,1.8c0.8,0.3,1.6,0.8,2.4,1c0,0,0.1,0,0.1,0c0,0,0,0,0,0
				c0.1,0.1,0.2,0.1,0.4,0.2c0,0,0.1,0,0.1,0.1c0.1,0,0.2,0.1,0.3,0.1c0,0,0.1,0,0.1,0.1c0.1,0.1,0,0.2-0.1,0.3
				c-1.1,1.9-2.2,3.9-3.3,5.9c-0.1,0.1-0.1,0.3-0.1,0.4c0,0,0,0,0,0c0,0-0.1,0-0.1,0c-0.2,0.1-0.2,0.2-0.3,0.4
				c-1.2,2.1-2.3,4.2-3.5,6.3c-0.1,0.2-0.2,0.3-0.2,0.5c0,0,0,0,0,0c-0.2,0-0.3,0.2-0.4,0.4c-1.2,2.1-2.4,4.2-3.5,6.3
				c-0.1,0.2-0.3,0.4-0.2,0.6c0,0,0,0,0,0c0,0,0,0,0,0c-0.1,0.1-0.1,0.1-0.1,0.2c0,0,0,0.1-0.1,0.1c0,0.1-0.1,0.1-0.1,0.2
				c0,0,0,0.1-0.1,0.1c0,0.1-0.1,0.1-0.1,0.2c0,0,0,0.1-0.1,0.1c0,0.1-0.1,0.1-0.2,0.2c-1.1,1.8-2.1,3.7-3.1,5.5
				c-0.1,0.1-0.1,0.3,0,0.4c0,0,0,0,0,0c0,0,0,0,0,0c0,0,0,0,0,0c0,0,0,0-0.1,0c-0.1,0.1-0.1,0.1-0.2,0.2c0,0,0,0.1-0.1,0.1
				c0,0.1-0.1,0.2-0.2,0.3c-1,1.6-1.9,3.4-2.8,5c-0.1,0.1-0.1,0.2-0.1,0.3C714.5,97.7,714.4,97.8,714.4,97.8z"/>
			<path class="st13" d="M554.4,52.8c0-0.1,0-0.2-0.1-0.2C554.3,52.7,554.3,52.7,554.4,52.8z"/>
			<path class="st13" d="M577.5,63.7c0-0.1,0-0.2-0.1-0.2C577.4,63.6,577.5,63.6,577.5,63.7z"/>
			<path class="st13" d="M546.5,37.7c0,0.1,0,0.1,0.1,0.1C546.5,37.7,546.5,37.7,546.5,37.7z"/>
			<path class="st13" d="M545.4,34.6c0,0.1,0,0.1,0.1,0.1C545.5,34.7,545.4,34.7,545.4,34.6z"/>
			<path class="st13" d="M631.4,34.2C631.4,34.2,631.4,34.2,631.4,34.2C631.4,34.2,631.4,34.2,631.4,34.2L631.4,34.2z"/>
			<path class="st13" d="M649.8,24c0.1,0,0.1-0.1,0.2-0.1C649.9,23.9,649.8,24,649.8,24C649.8,24,649.8,24,649.8,24
				c-0.1,0-0.1,0-0.1,0.1C649.7,24.1,649.8,24.1,649.8,24z"/>
			<path class="st13" d="M721.6,56.4c-0.1,0-0.2,0-0.2,0.1C721.5,56.5,721.6,56.5,721.6,56.4z"/>
			<polygon class="st13" points="624.3,34.1 624.3,34.1 624.3,34.1 			"/>
			<polygon class="st13" points="591.1,53.6 591.1,53.6 591.1,53.6 			"/>
			<path class="st13" d="M601.8,50c-0.2,0.8-0.5,1.6-1.2,2.1c-0.3,0.2-0.8,0.4-1.1,0.6c-0.2,0.1-0.4,0.1-0.6,0.2c-0.3,0-0.5,0-0.8,0
				c-0.8-0.1-1.6-0.4-2.2-0.9c-0.5-0.5-0.9-1.1-1.1-1.9c0-0.1,0-0.2,0-0.2c0,0,0-0.1,0-0.1c0-0.4,0.1-0.8,0.1-1.2
				c0.1-0.1,0.2-0.2,0.2-0.4l0,0l0,0c0.1-0.1,0.2-0.2,0.3-0.3c0.7-0.6,1.5-1.2,2.5-1.2c0.1,0,0.2,0,0.2-0.1c0.1,0,0.2,0,0.3,0.1
				c-0.5-0.4-1-0.4-1.6-0.4c-0.2,0-0.4,0-0.6,0c-1.2,0-2.4,0.4-3.4,1.1c-0.1,0.2-0.3,0.2-0.4,0.4c-0.5,0.4-0.8,0.8-1.1,1.3
				c0,0,0,0,0,0c-0.1,0-0.1,0.1-0.1,0.2c-0.4,0.6-0.6,1.3-0.5,2.1c-0.1,0.8,0.1,1.5,0.4,2.2l0,0c0,0,0,0.1,0.1,0.1
				c0,0,0.1,0.1,0.1,0.1c0,0,0,0,0,0c0,0,0,0,0,0l0,0c0,0,0,0,0,0c0-0.1,0-0.1-0.1-0.1c0,0.1,0,0.1,0.1,0.1c0,0.1,0,0.2,0.1,0.2l0,0
				c0,0,0.1,0.1,0.1,0.1l0,0c0,0,0.1,0.1,0.1,0.1l0,0c0,0,0.1,0.1,0.1,0.1c0.2,0.4,0.5,0.7,0.8,1c1.9,1.8,4.8,2.2,7.2,1
				c0.1-0.1,0.3-0.1,0.4-0.2c0.3-0.3,0.7-0.5,0.9-0.8c0.4-0.3,0.6-0.6,0.8-1.1c0.1,0,0.1-0.1,0.1-0.2c0,0,0,0,0-0.1
				c0.7-1.3,0.8-2.7,0.3-4.1C601.9,49.9,601.9,49.9,601.8,50z"/>
			<path class="st13" d="M649.6,48.1c0.3-0.3,0.3-0.3,0.1-0.6c-1.5-2.1-3.6-3-6.2-2.6c-1.1,0.1-2,0.6-2.8,1.2
				c-0.9,0.4-1.4,1.2-1.8,2c0,0,0,0.1,0,0.1c-0.2,0.1-0.3,0.3-0.4,0.5c-0.8,2-0.6,3.9,0.5,5.8c0.2,0.3,0.3,0.6,0.7,0.7
				c0.3,0.3,0.3,0.3,0.7,0c1.4-1.1,2.8-2.1,4.2-3.2c0.9-0.7,1.9-1.4,2.8-2.2C648.1,49.3,648.9,48.7,649.6,48.1z M643.2,50.2
				c-0.8,0.6-1.5,1.2-2.2,1.7c-0.2,0.2-0.4,0.2-0.4-0.1c-0.1-0.7-0.1-1.5,0.3-2.1c0.1-0.3,0.3-0.5,0.3-0.8c0.1,0,0.2-0.1,0.2-0.2
				c0.2-0.3,0.5-0.5,0.8-0.7c1.3-0.9,2.7-1,4.1-0.3c0,0,0.1,0.1,0.1,0.1c0,0,0,0,0,0c0,0-0.1,0.1-0.1,0.1c0,0-0.1,0.1-0.1,0.1
				c-0.1,0.1-0.2,0.2-0.4,0.3c0,0,0,0-0.1,0c0,0-0.1,0.1-0.1,0.1c0,0,0,0,0,0.1l0,0c0,0-0.1,0-0.1,0C644.7,48.9,644,49.6,643.2,50.2
				z"/>
			<path class="st13" d="M620.3,51.4c0,0-0.1-0.1-0.1-0.1C620.2,51.4,620.3,51.4,620.3,51.4z"/>
			<path class="st13" d="M570.7,36.7c0,0.1,0.1,0.2,0.2,0.3c0,0.1,0,0.2,0,0.3c0.1,1.3,0.3,2.6,0.4,3.9c0.1,0.7,0.1,1.4,0.3,2.1
				c0,0.1-0.1,0.1-0.1,0.2c-0.1,0.9,0.2,1.7,0.2,2.6c0,0.6,0.1,1.1,0.2,1.7c0.1,0.4,0.2,0.5,0.6,0.3c0.1,0,0.2-0.1,0.3-0.1
				c0.2-0.1,0.4-0.2,0.6-0.3c1.1-0.5,2.1-1,3.1-1.7c0.6-0.4,1.2-0.9,1.6-1.5c0,0,0.1-0.1,0.1-0.1c1.2-1.5,1.7-3.3,1.6-5.2
				c0-0.5-0.1-0.9-0.4-1.3c-0.3-0.8-0.9-1.5-1.5-2c-1.3-1-2.8-1.4-4.5-1.5c-0.9,0-1.8,0.2-2.7,0.4c-0.2,0.1-0.3,0.2-0.2,0.4
				C570.6,35.7,570.7,36.2,570.7,36.7z M577.9,43.9c0,0-0.1,0-0.1,0C577.8,43.9,577.8,43.8,577.9,43.9
				C577.9,43.9,577.9,43.9,577.9,43.9z M574.8,37.4c0.4,0.1,0.8,0.4,1.2,0.4c0,0,0,0,0,0c0,0,0.1,0.1,0.1,0.1c0,0,0.1,0,0.1,0.1
				c0,0,0.1,0,0.1,0.1c0,0,0.1,0,0.1,0.1c0,0,0.1,0,0.1,0.1c0,0,0,0,0,0c0,0,0,0.1,0.1,0.1c0,0,0,0,0,0c0,0,0,0.1,0.1,0.1
				c0,0,0,0,0,0c0,0,0,0.1,0.1,0.1c0,0,0,0,0,0c0,0,0,0.1,0.1,0.1c0,0,0,0,0,0.1c0,0,0,0.1,0,0.1c0,0,0,0,0,0.1c0,0,0,0.1,0,0.1
				c0.2,1.1,0,2.1-0.6,3c0,0.1-0.1,0.2-0.1,0.2c0,0,0,0.1-0.1,0.1c0,0.1-0.1,0.1-0.1,0.1c0,0-0.1,0.1-0.1,0.1
				c-0.1,0.1-0.1,0.2-0.2,0.3c-0.1,0.1-0.3,0.2-0.2,0.4c0,0,0,0,0,0c0,0,0,0-0.1,0c0,0,0,0-0.1,0c0,0-0.1,0-0.1,0.1c0,0,0,0-0.1,0
				c0,0-0.1,0-0.1,0c0,0-0.1,0-0.1,0.1c-0.2,0.1-0.3,0.3-0.6,0.3c-0.1-0.3-0.1-0.6-0.2-0.7c0.1-0.2,0.1-0.4,0.1-0.5
				c-0.1-1.5-0.3-3-0.5-4.5c-0.1-0.3,0-0.6-0.2-0.8C574,37.2,574.4,37.2,574.8,37.4z"/>
			<path class="st13" d="M699.2,72c0.1-0.1,0.2-0.2,0.3-0.3c0.5-0.3,0.8-0.8,1.1-1.3c0.1,0,0.1-0.1,0.1-0.2c0,0,0,0,0-0.1
				c0-0.1,0.1-0.1,0.1-0.2c0.6-1.3,0.7-2.5,0.2-3.9c-0.1,0-0.1,0-0.2,0.1c0,0,0,0.1-0.1,0.1c-0.2,1.1-0.8,1.9-1.9,2.3
				c-0.1,0.1-0.2,0.1-0.3,0.2c-0.9,0.3-1.8,0.2-2.6-0.2c-0.7-0.3-1.2-0.8-1.7-1.4c-0.2-0.4-0.4-0.9-0.5-1.4c0-0.6,0.1-1.1,0.3-1.7
				c0.1-0.1,0.2-0.2,0.3-0.3c0.8-0.7,1.7-1.3,2.8-1.2c0.1,0,0.3,0,0.3-0.2c-0.7-0.2-1.3-0.4-2-0.4c-1.4,0-2.6,0.4-3.7,1.1
				c-0.1,0.1-0.1,0.2-0.2,0.2c-0.6,0.5-1.1,1-1.3,1.7c-0.2,0.2-0.2,0.4-0.2,0.6l0,0c0,0,0,0,0,0c-0.3,0.7-0.3,1.4-0.2,2.2
				c0,0,0,0,0,0c0,0.1,0,0.2,0,0.3l0,0c0,0.1,0,0.2,0,0.2c0.1,0.5,0.2,0.9,0.5,1.3l0,0c0,0,0.1,0.1,0.1,0.1l0,0c0,0,0.1,0.1,0.1,0.1
				l0,0c0.1,0,0.1,0.1,0.1,0.1c0,0.1,0.1,0.2,0.1,0.3c1.4,2,4.1,3,6.5,2.4C697.9,72.8,698.5,72.5,699.2,72z"/>
			<polygon class="st13" points="695.9,81.2 695.9,81.2 695.8,81.2 			"/>
		</g>
		<g>
			<path class="st14" d="M601.9,50c0,0,0.1-0.1,0.1-0.1c0-0.1,0-0.2-0.1-0.2C601.8,49.7,601.8,49.9,601.9,50z"/>
			<path class="st14" d="M712,73.1C712,73,711.9,73,712,73.1C711.9,73,711.9,73,712,73.1c-0.1,0.2-0.3,0.3-0.3,0.6
				c0.2,0.2-0.1,0.4,0.1,0.6C711.9,73.9,711.9,73.5,712,73.1z"/>
			<path class="st14" d="M700.9,65.9c0,0.1-0.1,0.2,0,0.3c0,0,0.1-0.1,0.1-0.1C701.1,66,701,66,700.9,65.9z"/>
			<path class="st14" d="M646.5,47.6L646.5,47.6C646.5,47.6,646.5,47.6,646.5,47.6C646.5,47.6,646.5,47.6,646.5,47.6
				c-0.7-0.4-1.5-0.6-2.3-0.5c-0.8,0.1-1.5,0.3-2.1,0.8c0.2,0,0.5,0,0.7,0c1,0,1.9,0.1,2.7,0.7c0,0,0.1,0,0.1-0.1l0,0
				c0,0,0.1-0.1,0.1-0.1c0.2-0.1,0.4-0.2,0.5-0.4c0.1,0,0.1,0,0.1-0.1C646.6,47.8,646.6,47.7,646.5,47.6L646.5,47.6z"/>
			<path class="st14" d="M577,38.8L577,38.8c0,0,0-0.1-0.1-0.1l0,0c0,0-0.1-0.1-0.1-0.1v0c0,0-0.1-0.1-0.1-0.1l0,0
				c0,0-0.1-0.1-0.1-0.1l0,0c0,0,0-0.1-0.1-0.1l0,0c0-0.1-0.1-0.1-0.2-0.2c0-0.1-0.1-0.1-0.2-0.1l0,0c0-0.1-0.1-0.1-0.2-0.1l0,0
				c-0.2-0.1-0.4-0.2-0.5-0.3c-0.5-0.2-1.1-0.4-1.7-0.4c-0.2,0-0.3,0.1-0.3,0.3c0,0.3,0.1,0.5,0.1,0.8c0.4,0.1,0.7,0.2,1,0.4
				c0.6,0.4,1.1,0.9,1.2,1.7c0.1,1-0.1,2-0.6,2.9c-0.3,0.3-0.3,0.3-0.1,0.5c0,0,0.1,0,0.1,0c0,0,0.1-0.1,0.1-0.1l0,0
				c0,0,0.1-0.1,0.1-0.1l0,0c0,0,0.1-0.1,0.1-0.1l0,0c0.1-0.1,0.2-0.2,0.3-0.3c0.1-0.1,0.3-0.2,0.3-0.4c0.1,0,0.1-0.1,0.1-0.2
				c0.1,0,0.1-0.1,0.2-0.2c0,0,0,0,0,0s0,0,0,0c0.1-0.1,0.2-0.3,0.3-0.4c0.4-0.9,0.6-1.9,0.3-2.9C577.1,38.8,577.1,38.8,577,38.8z"
				/>
		</g>
	</g>
</g>
</svg>
